<?xml version="1.0" encoding="UTF-8"?>
<svg version="1.1" xmlns="http://www.w3.org/2000/svg" width="1024" height="1024">
<path d="M0 0 C337.92 0 675.84 0 1024 0 C1024 337.92 1024 675.84 1024 1024 C686.08 1024 348.16 1024 0 1024 C0 686.08 0 348.16 0 0 Z " fill="#060D1B" transform="translate(0,0)"/>
<path d="M0 0 C0.94092491 -0.00594224 1.88184982 -0.01188449 2.8512876 -0.0180068 C6.0179798 -0.0354106 9.18452104 -0.03839976 12.35125732 -0.04138184 C14.61617864 -0.05063612 16.88109682 -0.06068516 19.14601135 -0.07147217 C25.30932908 -0.0977449 31.47260321 -0.11061494 37.63596821 -0.11949348 C41.48491569 -0.12535115 45.3338512 -0.13356005 49.18279266 -0.14250183 C59.84065015 -0.16672303 70.49849303 -0.18748577 81.15637589 -0.19425201 C81.83852779 -0.19469115 82.52067969 -0.19513028 83.22350286 -0.19558272 C83.90728333 -0.19601927 84.5910638 -0.19645583 85.29556489 -0.19690561 C86.68115378 -0.19779254 88.06674266 -0.19868567 89.45233154 -0.19958496 C90.48328055 -0.20024925 90.48328055 -0.20024925 91.5350568 -0.20092696 C102.66884998 -0.208821 113.8023812 -0.24372249 124.93607321 -0.29030401 C136.36856393 -0.33774924 147.80086438 -0.36214073 159.23346591 -0.36498785 C165.65180225 -0.36708582 172.06976923 -0.37894009 178.48801422 -0.41462708 C184.52589951 -0.44754517 190.56313699 -0.45192128 196.60107994 -0.43434906 C198.81703868 -0.43280592 201.03303192 -0.4415255 203.24890327 -0.46126556 C206.27518915 -0.48664374 209.29916997 -0.47498999 212.32543945 -0.45410156 C213.20181226 -0.47021437 214.07818507 -0.48632718 214.98111463 -0.50292826 C220.59952225 -0.41226561 223.53269361 0.87888693 227.63779551 4.73055452 C229.54741869 7.04548483 229.78616026 8.77742884 229.77484131 11.7479248 C229.78722336 12.79243301 229.79960541 13.83694122 229.81236267 14.9131012 C229.78878189 16.02575851 229.76520111 17.13841583 229.74090576 18.28479004 C229.74048782 19.44083237 229.74006989 20.59687469 229.73963928 21.78794861 C229.73127372 24.22638182 229.70584615 26.66480845 229.66448975 29.10290527 C229.60433109 32.83444676 229.60291542 36.56259853 229.61004639 40.29455566 C229.59463911 42.66632556 229.57587259 45.03807651 229.55340576 47.40979004 C229.55209152 48.52447159 229.55077728 49.63915314 229.54942322 50.78761292 C229.38423124 58.50454456 229.38423124 58.50454456 227.00189209 62.46032715 C223.37202137 65.62950476 221.02554414 65.40466813 216.26028442 65.40113831 C215.56845523 65.40199273 214.87662603 65.40284716 214.16383231 65.40372747 C211.83451704 65.40538088 209.50527304 65.39986318 207.17596436 65.39440918 C205.51066591 65.39412725 203.84536734 65.39428515 202.18006897 65.39485168 C197.64932934 65.39513944 193.11861601 65.38924622 188.58788252 65.38227773 C183.85663453 65.37604058 179.12538599 65.3754401 174.39413452 65.37425232 C165.43041397 65.37114007 156.46670556 65.36292811 147.50299037 65.35290283 C137.29999587 65.34173839 127.0970008 65.33623041 116.89400172 65.33120739 C95.9015567 65.32074542 74.90912262 65.30314803 53.91668701 65.28088379 C54.02402186 75.56400243 54.13662079 85.84704846 54.25602627 96.13003445 C54.3112979 100.90433327 54.36472453 105.67863817 54.41400146 110.45300293 C54.46158266 115.05660072 54.51392294 119.6601216 54.56962776 124.26362801 C54.59007971 126.02395791 54.60878799 127.78430894 54.62576103 129.54467583 C54.64974245 132.00166367 54.6798051 134.45850478 54.71136475 136.91540527 C54.71712021 137.65051834 54.72287567 138.38563141 54.72880554 139.14302063 C54.4871227 142.498149 54.4871227 142.498149 55.91668701 145.28088379 C57.60086442 145.38270648 59.28931588 145.41441588 60.9765625 145.41891479 C62.07296555 145.42436813 63.16936859 145.42982147 64.29899597 145.43544006 C65.51249222 145.43648239 66.72598846 145.43752472 67.97625732 145.43859863 C69.92551332 145.44639779 71.87476931 145.454201 73.82402468 145.46215653 C75.92610064 145.46988481 78.0281722 145.47525924 80.13025665 145.48011398 C84.50879448 145.49077547 88.88725452 145.51101625 93.26574707 145.53323364 C105.71885609 145.59521717 118.1719614 145.64915196 130.62518311 145.68225098 C137.49806284 145.7005987 144.37081315 145.72953879 151.24359775 145.77025568 C154.8817435 145.79132795 158.5197261 145.80678319 162.1579361 145.80906296 C166.21865164 145.81161029 170.278914 145.83707664 174.33953857 145.86437988 C176.14763756 145.85987068 176.14763756 145.85987068 177.99226379 145.85527039 C179.09994614 145.86636337 180.20762848 145.87745636 181.34887695 145.8888855 C182.78907385 145.89385072 182.78907385 145.89385072 184.25836563 145.89891624 C187.45836607 146.3587163 189.31692291 147.38216379 191.91668701 149.28088379 C194.11821218 152.58317154 194.16885805 153.58507906 194.17547607 157.42321777 C194.1817804 158.47118027 194.18808472 159.51914276 194.19458008 160.59886169 C194.18850739 162.29577904 194.18850739 162.29577904 194.18231201 164.02697754 C194.18422546 165.18963638 194.18613892 166.35229523 194.18811035 167.55018616 C194.18947223 170.01063249 194.18577563 172.471086 194.1774292 174.93151855 C194.16673964 178.6998306 194.17731974 182.46766484 194.19012451 186.23596191 C194.18880273 188.62463484 194.18623995 191.01330747 194.18231201 193.40197754 C194.18636047 194.53123154 194.19040894 195.66048553 194.19458008 196.82395935 C194.1851236 198.40063133 194.1851236 198.40063133 194.17547607 200.00915527 C194.17388489 200.93276352 194.1722937 201.85637177 194.1706543 202.80796814 C193.88637379 205.57604799 193.56283655 207.0299889 191.91668701 209.28088379 C186.30379201 213.45406964 179.79277946 212.6808215 173.11834717 212.62145996 C171.18582596 212.62211708 171.18582596 212.62211708 169.21426392 212.62278748 C165.69394366 212.62364593 162.17393194 212.60604483 158.65368319 212.5850656 C154.97015745 212.56627358 151.28662414 212.56454638 147.60305786 212.56098938 C140.63332732 212.5516763 133.66373846 212.52707259 126.69407022 212.49694091 C118.75697999 212.46337387 110.81988288 212.44690511 102.88273931 212.43185461 C86.56063903 212.40052231 70.23868112 212.34777627 53.91668701 212.28088379 C54.02414226 222.65984264 54.13676631 233.03873121 54.25602627 243.41756153 C54.31123764 248.23664367 54.36465484 253.05573189 54.41400146 257.87487793 C54.46167128 262.52387 54.51401514 267.17278791 54.56962776 271.82169151 C54.59003943 273.59711554 54.60875448 275.37255989 54.62576103 277.14801979 C54.64983128 279.63094061 54.67988232 282.11372128 54.71136475 284.59655762 C54.71712021 285.33383087 54.72287567 286.07110413 54.72880554 286.83071899 C54.77334115 289.91199213 54.93465005 292.3347729 55.91668701 295.28088379 C56.77606149 295.28050676 57.63543596 295.28012974 58.52085209 295.27974129 C79.4365007 295.27262255 100.35188126 295.29853583 121.26744175 295.36116219 C131.38210504 295.39065238 141.49655823 295.40898428 151.61126709 295.40100098 C160.42782346 295.39407064 169.24405466 295.40812422 178.06053108 295.44731987 C182.72840204 295.46734062 187.39576241 295.47689093 192.06366158 295.46130753 C196.45930477 295.4469647 200.85397298 295.46072496 205.24949074 295.49583626 C206.86070265 295.50379047 208.47200275 295.50156701 210.08317947 295.48827553 C223.77076717 295.38492841 223.77076717 295.38492841 228.36772156 299.20419312 C231.4806535 302.96161111 232.04101537 304.36715403 232.09368896 309.09436035 C232.11294182 310.59667206 232.11294182 310.59667206 232.13258362 312.1293335 C232.13997055 313.21575134 232.14735748 314.30216919 232.15496826 315.42150879 C232.16304001 316.53644714 232.17111176 317.6513855 232.1794281 318.80010986 C232.19327761 321.16396526 232.20399587 323.52784072 232.21185303 325.89172363 C232.22905086 329.50229983 232.27292887 333.11195704 232.31707764 336.72229004 C232.32720566 339.01785622 232.33572142 341.31343019 232.34246826 343.60900879 C232.35997635 344.68732971 232.37748444 345.76565063 232.39552307 346.87664795 C232.37845237 352.7942171 232.20596993 356.7913838 227.91668701 361.28088379 C222.7636034 364.55389397 218.52779623 364.707719 212.62446594 364.66183472 C211.69731197 364.66651469 210.77015799 364.67119466 209.81490844 364.67601645 C206.71270217 364.68796844 203.61093747 364.67850824 200.50872803 364.66906738 C198.28277326 364.67313301 196.05682051 364.67847484 193.83087158 364.68499756 C187.78751088 364.6986787 181.74430377 364.69336891 175.70094037 364.6838603 C169.37676914 364.67626695 163.05261108 364.68330851 156.72843933 364.6880188 C145.42638637 364.6938274 134.1244114 364.6845012 122.82237404 364.66924079 C112.58156027 364.65584114 102.34084854 364.65816333 92.10003662 364.67199707 C80.20059706 364.68806389 68.30121946 364.69402089 56.40176529 364.68516028 C50.10544538 364.6804839 43.80919572 364.67985794 37.51288033 364.68976974 C31.59245181 364.69843863 25.67221589 364.69241867 19.75180817 364.67508698 C17.57940681 364.67112157 15.40698924 364.67225708 13.23459435 364.67887497 C10.26814164 364.68707833 7.30230522 364.67678306 4.33589172 364.66183472 C3.47712907 364.66852688 2.61836641 364.67521905 1.73358065 364.68211401 C-4.87140247 364.61760158 -9.55831318 363.7175442 -14.48906708 358.95929718 C-17.47109649 353.74898299 -16.63178392 347.23504587 -16.59124756 341.42626953 C-16.5958579 339.99405518 -16.60221172 338.56184556 -16.61015654 337.12964582 C-16.62685489 333.19831052 -16.61860136 329.26736361 -16.60621166 325.33602691 C-16.59716551 321.09464241 -16.61112873 316.85332494 -16.62213135 312.61195374 C-16.63992582 304.30480943 -16.63607246 295.99780963 -16.62448078 287.69065964 C-16.61545039 280.93979272 -16.61422076 274.18896632 -16.61857605 267.43809509 C-16.61918898 266.47759002 -16.61980191 265.51708495 -16.62043342 264.52747366 C-16.62171231 262.57627824 -16.62300916 260.62508283 -16.62432379 258.67388743 C-16.6357323 240.37383279 -16.62261162 222.07385827 -16.60112232 203.77381676 C-16.58325109 188.06861278 -16.58635513 172.36352705 -16.60479736 156.6583252 C-16.62619927 138.42413971 -16.63463364 120.19002448 -16.62234831 101.95582819 C-16.6210741 100.0117763 -16.61981662 98.0677244 -16.61857605 96.12367249 C-16.61795895 95.16714042 -16.61734185 94.21060836 -16.61670604 93.22509047 C-16.61325111 86.48166244 -16.61908459 79.73827893 -16.62849426 72.99485779 C-16.63970807 64.7778135 -16.63668723 56.56092207 -16.61537129 48.34389532 C-16.60485252 44.15072298 -16.60075302 39.95780559 -16.6139679 35.76463509 C-16.62588068 31.92660474 -16.61934807 28.08906582 -16.59805769 24.2510801 C-16.59358685 22.86220316 -16.59586879 21.47328477 -16.60556084 20.08443445 C-16.68917813 7.10752349 -16.68917813 7.10752349 -12.08331299 2.28088379 C-8.09900555 -0.37532117 -4.62680772 -0.00905697 0 0 Z " fill="#169FF9" transform="translate(313.08331298828125,331.7191162109375)"/>
<path d="M0 0 C3.04499747 1.94416329 5.46432156 4.44219522 8 7 C8.89332031 7.86882812 9.78664063 8.73765625 10.70703125 9.6328125 C15.41452789 14.23584207 19.91774431 18.96109585 24.19140625 23.97265625 C27.17161659 27.313324 30.39830594 30.40558817 33.58203125 33.55078125 C36.30649918 36.3104604 38.83547376 39.19180657 41.35546875 42.13671875 C43.5439537 44.61630858 45.89544013 46.9062118 48.25390625 49.22265625 C50.06477643 51.06593574 51.75321354 52.97822799 53.4375 54.9375 C55.85617779 57.74576347 58.35899683 60.39970593 61 63 C64.22810138 66.17853361 67.20165659 69.49568269 70.1484375 72.93359375 C72.19909677 75.22219871 74.36236251 77.3550499 76.5625 79.5 C86.47164921 89.35824605 86.47164921 89.35824605 87.625 95.125 C86.82877194 98.78764906 85.34668328 101.10115595 83 104 C82.34 104 81.68 104 81 104 C80.6596875 104.86625 80.6596875 104.86625 80.3125 105.75 C78.02977577 109.66324154 75.32371611 111.55817688 71.05078125 112.984375 C65.20822433 113.68328199 60.23348849 109.86457154 55.375 107.0625 C53.77736816 106.17075073 53.77736816 106.17075073 52.14746094 105.26098633 C45.42594291 101.48256666 38.81862589 97.55195841 32.390625 93.29296875 C29.86658436 91.68284837 29.86658436 91.68284837 26 92 C25.99945523 93.24330676 25.99891047 94.48661352 25.99834919 95.76759624 C25.9842663 125.36590483 25.94434341 154.96406377 25.87314438 184.5622843 C25.86437896 188.21543194 25.85582892 191.86858006 25.84741211 195.52172852 C25.84573305 196.24892062 25.84405398 196.97611272 25.84232404 197.72534094 C25.81574669 209.45760666 25.80656563 221.1898235 25.80395857 232.92211624 C25.80088531 244.98516773 25.7787811 257.04807931 25.73947543 269.11106759 C25.71796534 275.87632758 25.70487259 282.64137334 25.71384621 289.40666771 C25.72144593 295.79009447 25.7053246 302.17304526 25.67193985 308.55638504 C25.66377749 310.88414546 25.6638715 313.21195387 25.67340279 315.53970909 C25.76131599 339.39502229 22.52746228 362.57084227 6 381 C5.32195312 381.75925781 4.64390625 382.51851562 3.9453125 383.30078125 C-9.6404032 397.68423471 -29.10830225 405.43260917 -48.79101562 406.09375 C-51.90301564 406.13387895 -55.01277688 406.13645604 -58.125 406.125 C-59.18332031 406.12886719 -60.24164062 406.13273437 -61.33203125 406.13671875 C-66.32769333 406.13045067 -71.09343258 406.06959774 -76 405 C-73.35411724 403.23607816 -70.76872392 401.86736992 -67.9375 400.4375 C-51.65152521 391.60515918 -41.70112744 377.15012416 -36.078125 359.90625 C-33.68853308 351.63241628 -32.70724369 343.75691139 -32.75949097 335.15463257 C-32.75778212 334.10886602 -32.75607327 333.06309947 -32.75431263 331.98564303 C-32.75103713 328.50647066 -32.76198942 325.02749423 -32.77294922 321.54833984 C-32.77351375 319.04443364 -32.77319595 316.54052711 -32.77206421 314.03662109 C-32.77160982 308.65870046 -32.77725629 303.28083998 -32.78853989 297.90293503 C-32.80484306 290.12754345 -32.8100078 282.35217529 -32.81251587 274.57676847 C-32.81688544 261.95953152 -32.83017445 249.34232053 -32.84912109 236.72509766 C-32.86749904 224.47379689 -32.88164616 212.22250319 -32.89013672 199.97119141 C-32.89066217 199.21512176 -32.89118761 198.45905212 -32.89172898 197.68007128 C-32.89433919 193.88682357 -32.89686658 190.09357581 -32.89935279 186.30032802 C-32.92006229 154.86686647 -32.95541706 123.43343719 -33 92 C-37.06440028 92.72976425 -39.99925204 93.90382482 -43.60546875 95.94921875 C-44.67216797 96.55056641 -45.73886719 97.15191406 -46.83789062 97.77148438 C-47.94326172 98.40376953 -49.04863281 99.03605469 -50.1875 99.6875 C-51.27353516 100.30044922 -52.35957031 100.91339844 -53.47851562 101.54492188 C-59.3598604 104.87591774 -65.17670926 108.28311743 -70.90893555 111.86523438 C-74.27981266 113.69452064 -76.27721598 113.89622578 -80 113 C-82.97750041 110.95478935 -85.4442294 108.54028108 -88 106 C-88.60714844 105.51015625 -89.21429687 105.0203125 -89.83984375 104.515625 C-92.96361503 101.89900718 -94.47421959 99.80000459 -94.9375 95.6875 C-94.50754067 89.28110594 -89.48211104 86.02166946 -85 82 C-83.80936453 80.68802589 -82.64079614 79.35553423 -81.5 78 C-78.24955349 74.20781241 -74.74550431 70.72864469 -71.19140625 67.22265625 C-68.57898932 64.5729856 -66.16697379 61.78827197 -63.74609375 58.96484375 C-61.90384325 56.89179676 -59.97598338 54.94564198 -58 53 C-55.44130741 50.48044611 -53.01829389 47.91881218 -50.6875 45.1875 C-47.7774953 41.79804373 -44.67839675 38.63548893 -41.5 35.5 C-38.40507389 32.44663047 -35.38065663 29.37676245 -32.5625 26.0625 C-29.06870167 21.96254871 -25.25438805 18.22333876 -21.42236328 14.4440918 C-17.89675612 10.94915664 -14.57303697 7.34763238 -11.40234375 3.5234375 C-7.84729505 -0.33859312 -5.03737997 -0.74322 0 0 Z " fill="#6B42FE" transform="translate(669,290)"/>
<path d="M0 0 C3.04499747 1.94416329 5.46432156 4.44219522 8 7 C8.89332031 7.86882812 9.78664063 8.73765625 10.70703125 9.6328125 C15.41452789 14.23584207 19.91774431 18.96109585 24.19140625 23.97265625 C27.17161659 27.313324 30.39830594 30.40558817 33.58203125 33.55078125 C36.30649918 36.3104604 38.83547376 39.19180657 41.35546875 42.13671875 C43.5439537 44.61630858 45.89544013 46.9062118 48.25390625 49.22265625 C50.06477643 51.06593574 51.75321354 52.97822799 53.4375 54.9375 C55.85617779 57.74576347 58.35899683 60.39970593 61 63 C64.22810138 66.17853361 67.20165659 69.49568269 70.1484375 72.93359375 C72.19909677 75.22219871 74.36236251 77.3550499 76.5625 79.5 C86.47164921 89.35824605 86.47164921 89.35824605 87.625 95.125 C86.82877194 98.78764906 85.34668328 101.10115595 83 104 C82.34 104 81.68 104 81 104 C80.6596875 104.86625 80.6596875 104.86625 80.3125 105.75 C78.02977577 109.66324154 75.32371611 111.55817688 71.05078125 112.984375 C65.20822433 113.68328199 60.23348849 109.86457154 55.375 107.0625 C53.77736816 106.17075073 53.77736816 106.17075073 52.14746094 105.26098633 C45.42594291 101.48256666 38.81862589 97.55195841 32.390625 93.29296875 C29.86658436 91.68284837 29.86658436 91.68284837 26 92 C25.67 132.26 25.34 172.52 25 214 C24.67 214 24.34 214 24 214 C23.67 187.6 23.34 161.2 23 134 C22.34 133.67 21.68 133.34 21 133 C20.5859375 130.05859375 20.5859375 130.05859375 20.375 126.4375 C20.26285156 124.64119141 20.26285156 124.64119141 20.1484375 122.80859375 C20.09945312 121.88175781 20.05046875 120.95492187 20 120 C20.99 120 21.98 120 23 120 C22.649375 119.46375 22.29875 118.9275 21.9375 118.375 C21 116 21 116 21.4375 113.4375 C22.12673679 109.22549739 21.65709348 105.51029853 21.15625 101.29296875 C21.1046875 100.53628906 21.053125 99.77960938 21 99 C21.33 98.67 21.66 98.34 22 98 C22.23075082 96.65252916 22.41153063 95.29622435 22.5625 93.9375 C22.706875 92.638125 22.85125 91.33875 23 90 C27.43076923 87.90769231 27.43076923 87.90769231 30.3125 88.375 C30.869375 88.58125 31.42625 88.7875 32 89 C32 89.66 32 90.32 32 91 C33.0725 91.12375 34.145 91.2475 35.25 91.375 C39 92 39 92 41.0625 93.0625 C43.74173845 94.3589057 46.06820212 94.13326354 49 94 C49.33 94.99 49.66 95.98 50 97 C49.67 97.66 49.34 98.32 49 99 C49.66 99.33 50.32 99.66 51 100 C50.67 100.66 50.34 101.32 50 102 C52.64 102 55.28 102 58 102 C58.2475 102.639375 58.495 103.27875 58.75 103.9375 C59.81562433 106.18741541 59.81562433 106.18741541 62.125 106.75 C62.74375 106.8325 63.3625 106.915 64 107 C64 107.66 64 108.32 64 109 C67.05074215 109.28780586 69.96183742 109.45787911 73 109 C75.15602694 106.66250834 75.15602694 106.66250834 76 104 C77.32 104.33 78.64 104.66 80 105 C80.33 103.68 80.66 102.36 81 101 C81.66 101 82.32 101 83 101 C83.66 98.36 84.32 95.72 85 93 C84.34 93 83.68 93 83 93 C82.79375 92.2575 82.5875 91.515 82.375 90.75 C81.16427717 87.74563534 81.16427717 87.74563534 78 86.0625 C74.48369308 83.64503899 73.92665722 82.07729176 73 78 C71.02 78 69.04 78 67 78 C66.9175 77.236875 66.835 76.47375 66.75 75.6875 C65.84504809 72.44475565 64.71226652 71.83734184 62 70 C62 69.34 62 68.68 62 68 C61.34 67.67 60.68 67.34 60 67 C59.27840576 65.35636866 58.60648579 63.68949614 58 62 C55.69 62 53.38 62 51 62 C50.855625 61.236875 50.71125 60.47375 50.5625 59.6875 C50.0367406 56.91827092 50.0367406 56.91827092 49 54 C47.35 54 45.7 54 44 54 C42.02 49.545 42.02 49.545 40 45 C38.68 45.33 37.36 45.66 36 46 C36 45.01 36 44.02 36 43 C35.34 42.01 34.68 41.02 34 40 C33.375 37.8125 33.375 37.8125 33 36 C31.02 36.33 29.04 36.66 27 37 C26.95875 36.071875 26.9175 35.14375 26.875 34.1875 C26.58625 33.135625 26.2975 32.08375 26 31 C24.03384339 29.9349985 22.03273074 28.93166826 20 28 C19.0625 25.9375 19.0625 25.9375 19 24 C19.33 23.34 19.66 22.68 20 22 C18.9275 22.020625 17.855 22.04125 16.75 22.0625 C13 21 13 21 11.64453125 18.9296875 C10.65208136 16.64382818 9.7706187 14.36929353 9 12 C8.01 12.66 7.02 13.32 6 14 C3.53264116 11.53264116 3.0927616 9.27828479 2 6 C-1.96 6 -5.92 6 -10 6 C-10.4125 7.11375 -10.825 8.2275 -11.25 9.375 C-12.70459641 12.81754484 -12.70459641 12.81754484 -15.125 14.3125 C-15.74375 14.539375 -16.3625 14.76625 -17 15 C-17.33 15.66 -17.66 16.32 -18 17 C-18.99 17 -19.98 17 -21 17 C-20.505 18.485 -20.505 18.485 -20 20 C-20.763125 20.2475 -21.52625 20.495 -22.3125 20.75 C-25.30497069 22.14184683 -26.34445832 23.18557915 -28 26 C-28.70514846 28.14733927 -28.70514846 28.14733927 -29 30 C-29.763125 30.061875 -30.52625 30.12375 -31.3125 30.1875 C-34.20537182 30.77100116 -34.20537182 30.77100116 -35.8125 33.4375 C-37.14015367 35.83172339 -37.14015367 35.83172339 -37 38 C-38.32 38 -39.64 38 -41 38 C-41 39.32 -41 40.64 -41 42 C-42.40588892 43.27510855 -43.82443724 44.54223585 -45.33203125 45.6953125 C-47.76927276 47.60172624 -49.84581362 49.78245519 -52 52 C-51.67 52.66 -51.34 53.32 -51 54 C-52.65 54 -54.3 54 -56 54 C-56.33 55.32 -56.66 56.64 -57 58 C-57.66 58 -58.32 58 -59 58 C-59.33 59.32 -59.66 60.64 -60 62 C-60.66 62 -61.32 62 -62 62 C-62.268125 62.804375 -62.53625 63.60875 -62.8125 64.4375 C-63.204375 65.283125 -63.59625 66.12875 -64 67 C-65.485 67.495 -65.485 67.495 -67 68 C-67.33 68.99 -67.66 69.98 -68 71 C-69.9375 72.125 -69.9375 72.125 -72 73 C-72.99 73.495 -72.99 73.495 -74 74 C-74.33 74.99 -74.66 75.98 -75 77 C-76.6222454 78.70993434 -78.29413425 80.37347684 -80 82 C-81.0209375 83.175625 -81.0209375 83.175625 -82.0625 84.375 C-82.701875 84.91125 -83.34125 85.4475 -84 86 C-86.12109375 85.6015625 -86.12109375 85.6015625 -88 85 C-76.26758982 72.1887475 -76.26758982 72.1887475 -70.5703125 66.6015625 C-68.82086777 64.81730294 -67.19284418 62.95603876 -65.5625 61.0625 C-63.14382221 58.25423653 -60.64100317 55.60029407 -58 53 C-55.44130741 50.48044611 -53.01829389 47.91881218 -50.6875 45.1875 C-47.7774953 41.79804373 -44.67839675 38.63548893 -41.5 35.5 C-38.40507389 32.44663047 -35.38065663 29.37676245 -32.5625 26.0625 C-29.06870167 21.96254871 -25.25438805 18.22333876 -21.42236328 14.4440918 C-17.89675612 10.94915664 -14.57303697 7.34763238 -11.40234375 3.5234375 C-7.84729505 -0.33859312 -5.03737997 -0.74322 0 0 Z " fill="#A834F3" transform="translate(669,290)"/>
<path d="M0 0 C0.33 0 0.66 0 1 0 C1.01030746 1.03094788 1.02061493 2.06189575 1.03123474 3.12408447 C1.1289531 12.83555267 1.23168577 22.54695656 1.33933926 32.25831985 C1.39452462 37.25112971 1.44793766 42.24394546 1.49731445 47.23681641 C1.54502263 52.05439085 1.59736785 56.87189455 1.65294075 61.68938446 C1.67333504 63.5281778 1.69205293 65.36699052 1.70907402 67.20581818 C1.73318277 69.779536 1.76322851 72.35312069 1.79467773 74.92675781 C1.80331093 76.0693531 1.80331093 76.0693531 1.81211853 77.23503113 C1.85955745 80.64616763 2.05094853 83.7214964 3 87 C3 87.99 3 88.98 3 90 C3.42872668 93.30732013 3.90138507 96.55623281 4.625 99.8125 C5 102 5 102 4 104 C3.74265136 106.30755947 3.54229427 108.62166934 3.375 110.9375 C3.27960937 112.18402344 3.18421875 113.43054688 3.0859375 114.71484375 C2.81301537 118.00725953 2.81301537 118.00725953 4 121 C3.83988879 123.70123106 3.39559392 126.31875231 3 129 C3.66 129.33 4.32 129.66 5 130 C4.7215625 131.3921875 4.7215625 131.3921875 4.4375 132.8125 C3.75876119 136.01343771 3.75876119 136.01343771 5 139 C4.44140625 141.15625 4.44140625 141.15625 3.5625 143.5 C1.95036829 147.83757411 1.97067151 151.1220418 2.5 155.6875 C2.5928125 156.49574219 2.685625 157.30398438 2.78125 158.13671875 C2.8534375 158.75160156 2.925625 159.36648438 3 160 C1.68 159.67 0.36 159.34 -1 159 C-1.12375 159.969375 -1.2475 160.93875 -1.375 161.9375 C-1.58125 162.948125 -1.7875 163.95875 -2 165 C-2.66 165.33 -3.32 165.66 -4 166 C-5.11935716 167.57984007 -5.11935716 167.57984007 -6.125 169.4375 C-6.65480469 170.36369141 -6.65480469 170.36369141 -7.1953125 171.30859375 C-8.14320325 172.98882718 -8.14320325 172.98882718 -8 175 C-7.34 175.33 -6.68 175.66 -6 176 C-7.65 176.33 -9.3 176.66 -11 177 C-11.12375 177.556875 -11.2475 178.11375 -11.375 178.6875 C-12.7027027 183.6 -12.7027027 183.6 -14 186 C-16.625 186.8125 -16.625 186.8125 -19 187 C-19.66 189.97 -20.32 192.94 -21 196 C-23.31 196 -25.62 196 -28 196 C-28 196.66 -28 197.32 -28 198 C-26.54207116 198.05399736 -25.08357288 198.09279177 -23.625 198.125 C-22.81289063 198.14820313 -22.00078125 198.17140625 -21.1640625 198.1953125 C-18.78657757 198.21370051 -18.78657757 198.21370051 -17 196 C-17 196.66 -17 197.32 -17 198 C-13.91330709 197.25931761 -13.91330709 197.25931761 -12.25 194.9375 C-10 193 -10 193 -6.375 192.625 C-3 193 -3 193 -1 195 C-0.01 195 0.98 195 2 195 C2.33 194.34 2.66 193.68 3 193 C4.010625 192.87625 5.02125 192.7525 6.0625 192.625 C10.46314225 191.92648536 14.42619882 190.7457253 18 188 C18.7729943 185.93827709 18.7729943 185.93827709 19 184 C20.32 184.33 21.64 184.66 23 185 C23.33 184.01 23.66 183.02 24 182 C26.0625 180.8125 26.0625 180.8125 28 180 C27.67 179.01 27.34 178.02 27 177 C29.64 177 32.28 177 35 177 C35 174.03 35 171.06 35 168 C35.99 168.33 36.98 168.66 38 169 C41.06395215 168.31976074 41.06395215 168.31976074 42.25 166.125 C43.29417988 163.85930528 43.29417988 163.85930528 42 161 C42.99 161 43.98 161 45 161 C45 160.34 45 159.68 45 159 C44.34 158.67 43.68 158.34 43 158 C43 157.01 43 156.02 43 155 C43.92039062 154.87044922 43.92039062 154.87044922 44.859375 154.73828125 C47.09679076 154.18631289 47.09679076 154.18631289 48.265625 152.35546875 C50.82037281 146.72894083 51.12792876 142.4107747 50.875 136.28515625 C51.10346954 130.28069114 53.1217593 124.66826211 55 119 C55.33 119 55.66 119 56 119 C59.28233855 136.51663839 52.98488087 155.00419518 43.3125 169.53515625 C41.63569995 171.79806003 39.88011368 173.90355525 38 176 C37.32195312 176.75925781 36.64390625 177.51851562 35.9453125 178.30078125 C22.3595968 192.68423471 2.89169775 200.43260917 -16.79101562 201.09375 C-19.90301564 201.13387895 -23.01277688 201.13645604 -26.125 201.125 C-27.18332031 201.12886719 -28.24164062 201.13273438 -29.33203125 201.13671875 C-34.32769333 201.13045067 -39.09343258 201.06959774 -44 200 C-41.35411724 198.23607816 -38.76872392 196.86736992 -35.9375 195.4375 C-19.65152521 186.60515918 -9.70112744 172.15012416 -4.078125 154.90625 C-1.38590047 145.5276035 -0.69757332 136.67050979 -0.68115234 126.92138672 C-0.67183502 125.530761 -0.66166371 124.14014078 -0.65071106 122.74952698 C-0.62360012 119.00438241 -0.60831832 115.25927504 -0.59528303 111.51405859 C-0.57956898 107.5889294 -0.5528055 103.66387529 -0.5272522 99.73880005 C-0.48061003 92.31951636 -0.44379582 84.90021831 -0.41057932 77.48086369 C-0.37225455 69.02850901 -0.32287178 60.57623 -0.27259517 52.12393928 C-0.1694921 34.74934772 -0.08016192 17.37471224 0 0 Z " fill="#1F91DC" transform="translate(637,495)"/>
<path d="M0 0 C2.47429026 2.47429026 2.26541257 3.23086938 2.31884766 6.64233398 C2.33871735 7.60771591 2.35858704 8.57309784 2.37905884 9.56773376 C2.39061005 10.61659256 2.40216125 11.66545135 2.4140625 12.74609375 C2.43342865 13.82697769 2.4527948 14.90786163 2.4727478 16.02149963 C2.53265292 19.49341841 2.57887475 22.96537355 2.625 26.4375 C2.66318805 28.74415527 2.70224026 31.0507964 2.7421875 33.35742188 C3.04390016 51.51568273 3.04390016 51.51568273 2.90756226 60.52528381 C3.00426272 63.1141203 3.46970111 65.46862519 4 68 C4 70.33333333 4 72.66666667 4 75 C3.34 75 2.68 75 2 75 C2.165 75.61875 2.33 76.2375 2.5 76.875 C3.40944777 82.55904854 3.61889422 88.43665716 2 94 C2.66 94.33 3.32 94.66 4 95 C3.34 95 2.68 95 2 95 C2.0721875 95.61488281 2.144375 96.22976563 2.21875 96.86328125 C2.3115625 97.67152344 2.404375 98.47976563 2.5 99.3125 C2.5928125 100.11300781 2.685625 100.91351563 2.78125 101.73828125 C3 104 3 104 3 107 C3.00483193 108.44401202 3.0101828 109.88802234 3.01586914 111.33203125 C3.03381506 116.17479839 3.04540459 121.01756106 3.05493164 125.86035156 C3.05997723 127.9534556 3.06681318 130.04655609 3.07543945 132.13964844 C3.08754316 135.15560775 3.09323524 138.17152087 3.09765625 141.1875 C3.10281754 142.12505127 3.10797882 143.06260254 3.11329651 144.02856445 C3.11337204 144.89956787 3.11344757 145.77057129 3.11352539 146.66796875 C3.115746 147.43391357 3.11796661 148.1998584 3.12025452 148.98901367 C3 151 3 151 2 154 C2.66 154.33 3.32 154.66 4 155 C4.12606653 162.43792506 4.12606653 162.43792506 3.50219727 165.21948242 C2.92121416 168.43621389 2.8703398 171.45763148 2.8671875 174.7265625 C2.86589844 176.0053125 2.86460937 177.2840625 2.86328125 178.6015625 C2.86537598 179.26188477 2.8674707 179.92220703 2.86962891 180.60253906 C2.87500193 182.62572665 2.86965888 184.64869408 2.86328125 186.671875 C2.86457031 187.94804688 2.86585938 189.22421875 2.8671875 190.5390625 C2.86831543 191.70646973 2.86944336 192.87387695 2.87060547 194.07666016 C2.86908121 197.06385757 2.86908121 197.06385757 4 200 C3.7045913 201.34224535 3.3646443 202.67488739 3 204 C2.78351622 205.91360971 2.59743032 207.83083621 2.4375 209.75 C2.35371094 210.73484375 2.26992188 211.7196875 2.18359375 212.734375 C2.12300781 213.48203125 2.06242187 214.2296875 2 215 C2.66 215.33 3.32 215.66 4 216 C3.91621094 216.62648438 3.83242188 217.25296875 3.74609375 217.8984375 C3.59333984 219.12433594 3.59333984 219.12433594 3.4375 220.375 C3.33308594 221.18710937 3.22867187 221.99921875 3.12109375 222.8359375 C2.81762672 225.04899186 2.81762672 225.04899186 4 227 C4 230.47976503 3.6465936 233.35538361 3 236.75 C2.814375 237.73484375 2.62875 238.7196875 2.4375 239.734375 C2.2209375 240.85585938 2.2209375 240.85585938 2 242 C2.66 242 3.32 242 4 242 C4.33 243.32 4.66 244.64 5 246 C4.34 246.33 3.68 246.66 3 247 C2.93052385 255.4231034 2.87720113 263.84608732 2.84456348 272.26940632 C2.82889991 276.18060226 2.80764937 280.09160234 2.77368164 284.00268555 C2.74111231 287.77632259 2.7231522 291.5497711 2.71536827 295.32353783 C2.70982035 296.76408036 2.69898664 298.20461246 2.68280983 299.64507484 C2.66107041 301.6608234 2.6597749 303.67676121 2.65942383 305.69262695 C2.65276199 306.84068314 2.64610016 307.98873932 2.63923645 309.17158508 C2.75365757 312.03113785 2.75365757 312.03113785 4.52128601 313.89421082 C5.25324944 314.44157646 5.25324944 314.44157646 6 315 C5.50757813 315.3403125 5.01515625 315.680625 4.5078125 316.03125 C2.25048488 318.9786415 2.71968601 321.95478943 2.875 325.5 C3.10742188 332.67773438 3.10742188 332.67773438 2 336 C2.66 336.33 3.32 336.66 4 337 C3.34 337 2.68 337 2 337 C2 337.66 2 338.32 2 339 C2.99 339.33 3.98 339.66 5 340 C5 341.32 5 342.64 5 344 C6.4166747 345.7511573 6.4166747 345.7511573 8 347 C7.34 347 6.68 347 6 347 C8.57766799 349.57766799 10.45880682 349.48357599 14 350 C14.66 350.33 15.32 350.66 16 351 C18.44928655 351.09855117 20.86381376 351.13900583 23.3125 351.125 C24.62863281 351.12757813 25.94476563 351.13015625 27.30078125 351.1328125 C30.86069833 351.10945629 30.86069833 351.10945629 33.73046875 350.4296875 C36.2462102 349.95338533 37.56811203 350.30788374 40 351 C41.68558459 351.09053693 43.37449336 351.13009203 45.0625 351.125 C46.34833984 351.12886719 46.34833984 351.12886719 47.66015625 351.1328125 C50.15564201 351.09365135 50.15564201 351.09365135 53 350 C53.66 350.33 54.32 350.66 55 351 C57.12348901 351.12067685 59.25070888 351.17744375 61.37744141 351.20532227 C62.03122269 351.21522186 62.68500397 351.22512146 63.3585968 351.23532104 C65.52288167 351.26694711 67.6871885 351.29169772 69.8515625 351.31640625 C71.35086645 351.33697483 72.85016459 351.35797128 74.34945679 351.37937927 C78.29825131 351.43460988 82.24709826 351.48401476 86.19598389 351.53222656 C90.22445346 351.58243439 94.25284678 351.6381242 98.28125 351.69335938 C106.18743556 351.80095303 114.09368485 351.90239529 122 352 C122 352.33 122 352.66 122 353 C107.09228487 353.09347065 92.18459247 353.16399253 77.27664661 353.20724869 C70.3544974 353.2278678 63.43253034 353.25597563 56.51049805 353.30175781 C49.83207884 353.34590766 43.15388809 353.36912868 36.475317 353.37950897 C33.92557481 353.38690772 31.37584314 353.40135544 28.82618141 353.42292023 C25.25864784 353.45189783 21.69189964 353.4559582 18.12426758 353.45410156 C17.06690903 353.46848267 16.00955048 353.48286377 14.92015076 353.49768066 C10.52689691 353.47289157 7.78316423 353.45362986 3.92973328 351.22161865 C0.4654372 347.23332406 -0.24992204 344.39257194 -0.24609566 339.11981583 C-0.25007775 337.91008016 -0.25405985 336.70034449 -0.25816262 335.45395017 C-0.25245657 334.10978193 -0.24656538 332.76561446 -0.24050903 331.42144775 C-0.24138097 329.99493863 -0.24313173 328.56842981 -0.24568737 327.14192271 C-0.25016723 323.21737627 -0.24214846 319.29293863 -0.23213124 315.36840606 C-0.22350823 311.13803466 -0.22641609 306.90766958 -0.22793579 302.67729187 C-0.22898537 295.34634188 -0.22270114 288.01542744 -0.21146011 280.68448639 C-0.19521797 270.08513234 -0.18999843 259.4857955 -0.18748413 248.88643035 C-0.18310501 231.69039043 -0.16979001 214.49436947 -0.15087891 197.29833984 C-0.13252573 180.59228612 -0.11836647 163.88623755 -0.10986328 147.18017578 C-0.10933783 146.1507132 -0.10881239 145.12125062 -0.10827102 144.0605922 C-0.10566098 138.89617019 -0.10313355 133.73174814 -0.10064721 128.56732607 C-0.07990795 85.71153758 -0.0446765 42.85576977 0 0 Z " fill="#23EBF4" transform="translate(297,342)"/>
<path d="M0 0 C18.00235896 -0.14025132 36.00457584 -0.24601055 54.00736332 -0.31087303 C62.36666709 -0.34179232 70.72563111 -0.38393547 79.0847168 -0.45263672 C86.3717468 -0.51249838 93.65853072 -0.55116318 100.94579977 -0.56453097 C104.80339523 -0.57234351 108.6602868 -0.59066283 112.51765633 -0.63438034 C116.15151382 -0.67522944 119.78438029 -0.68764497 123.41844559 -0.67864609 C125.38173847 -0.68107344 127.34492436 -0.71329809 129.30793762 -0.746521 C138.97021186 -0.67893706 138.97021186 -0.67893706 143.29351807 2.70088196 C145.94411957 5.4907097 146.87310115 7.54445543 146.8581543 11.46704102 C146.87053635 12.51154922 146.8829184 13.55605743 146.89567566 14.63221741 C146.87209488 15.74487473 146.8485141 16.85753204 146.82421875 18.00390625 C146.82380081 19.15994858 146.82338287 20.31599091 146.82295227 21.50706482 C146.81458671 23.94549803 146.78915914 26.38392466 146.74780273 28.82202148 C146.68764408 32.55356297 146.6862284 36.28171474 146.69335938 40.01367188 C146.6779521 42.38544177 146.65918558 44.75719272 146.63671875 47.12890625 C146.63540451 48.2435878 146.63409027 49.35826935 146.63273621 50.50672913 C146.46754423 58.22366077 146.46754423 58.22366077 144.08520508 62.17944336 C140.45533436 65.34862097 138.10885713 65.12378434 133.34359741 65.12025452 C132.65176821 65.12110894 131.95993901 65.12196337 131.2471453 65.12284368 C128.91783003 65.12449709 126.58858602 65.11897939 124.25927734 65.11352539 C122.5939789 65.11324346 120.92868033 65.11340136 119.26338196 65.1139679 C114.73264233 65.11425565 110.201929 65.10836243 105.67119551 65.10139394 C100.93994752 65.09515679 96.20869898 65.09455631 91.47744751 65.09336853 C82.51372696 65.09025628 73.55001855 65.08204432 64.58630335 65.07201904 C54.38330886 65.0608546 44.18031379 65.05534662 33.97731471 65.05032361 C12.98486968 65.03986163 -8.00756439 65.02226424 -29 65 C-29 64.67 -29 64.34 -29 64 C0.06483506 63.32976208 29.11554145 62.89992134 58.1875 62.9375 C59.18521172 62.93878403 59.18521172 62.93878403 60.20307922 62.94009399 C67.71033531 62.95049573 75.21755681 62.96800937 82.72477722 62.99327087 C84.48317855 62.99847147 86.24159098 63 88 63 C89.77332109 63.00843018 91.54664202 63.01689818 93.31996155 63.02565002 C96.28515799 63.03893711 99.25036078 63.04712762 102.21557617 63.05493164 C103.78198919 63.05998301 105.34839745 63.06682305 106.91479492 63.07543945 C109.1736771 63.08753426 111.43249768 63.09323254 113.69140625 63.09765625 C114.39350723 63.10281754 115.09560822 63.10797882 115.81898499 63.11329651 C119.53362836 63.16813006 119.53362836 63.16813006 123 62 C123 62.66 123 63.32 123 64 C123.78375 63.855625 124.5675 63.71125 125.375 63.5625 C129.1558897 62.97581022 132.91992227 62.60903894 136.73046875 62.28125 C139.16145599 62.05571177 139.16145599 62.05571177 142 61 C142.73323796 58.98491642 142.73323796 58.98491642 143 57 C143.66 57 144.32 57 145 57 C144.67 56.34 144.34 55.68 144 55 C143.92570506 53.60621657 143.91344595 52.20884202 143.93408203 50.81323242 C143.94384064 49.94860886 143.95359924 49.08398529 143.96365356 48.19316101 C143.97822601 47.25672256 143.99279846 46.32028412 144.0078125 45.35546875 C144.02533382 43.37956247 144.04224162 41.40365068 144.05859375 39.42773438 C144.08953289 36.3070559 144.12501261 33.18665154 144.17138672 30.06616211 C144.21377309 27.05839633 144.23718418 24.05095195 144.2578125 21.04296875 C144.27643341 20.112603 144.29505432 19.18223724 144.3142395 18.22367859 C144.33400854 13.22127735 144.08568395 10.15333669 141 6 C141 5.34 141 4.68 141 4 C139.71453278 4.16233124 138.42906555 4.32466248 137.10464478 4.49191284 C132.16360009 5.03801829 127.29277508 5.14121233 122.32568359 5.12939453 C120.94001442 5.13202301 120.94001442 5.13202301 119.52635193 5.13470459 C116.48369436 5.13908762 113.44109564 5.13619031 110.3984375 5.1328125 C108.24028513 5.13348826 106.08213283 5.13446053 103.92398071 5.13571167 C99.38648763 5.1371853 94.84901423 5.1350511 90.31152344 5.13037109 C84.62069451 5.12477529 78.92991331 5.12799831 73.23908615 5.13379288 C52.50415011 5.15191099 31.76846002 5.12867472 11.03764725 4.67306137 C9.34835472 4.63620694 7.65899685 4.60222052 5.96958542 4.57129288 C3.67287355 4.52746771 1.37687399 4.47081573 -0.91943359 4.40966797 C-2.19901947 4.37904266 -3.47860535 4.34841736 -4.79696655 4.31686401 C-8 4 -8 4 -12 2 C-6.06 1.505 -6.06 1.505 0 1 C0 0.67 0 0.34 0 0 Z " fill="#5F65F7" transform="translate(396,332)"/>
<path d="M0 0 C0.33 0 0.66 0 1 0 C1.01030746 1.03094788 1.02061493 2.06189575 1.03123474 3.12408447 C1.1289531 12.83555267 1.23168577 22.54695656 1.33933926 32.25831985 C1.39452462 37.25112971 1.44793766 42.24394546 1.49731445 47.23681641 C1.54502263 52.05439085 1.59736785 56.87189455 1.65294075 61.68938446 C1.67333504 63.5281778 1.69205293 65.36699052 1.70907402 67.20581818 C1.73318277 69.779536 1.76322851 72.35312069 1.79467773 74.92675781 C1.80331093 76.0693531 1.80331093 76.0693531 1.81211853 77.23503113 C1.85955745 80.64616763 2.05094853 83.7214964 3 87 C3 87.99 3 88.98 3 90 C3.42872668 93.30732013 3.90138507 96.55623281 4.625 99.8125 C5 102 5 102 4 104 C3.74265136 106.30755947 3.54229427 108.62166934 3.375 110.9375 C3.27960937 112.18402344 3.18421875 113.43054688 3.0859375 114.71484375 C2.81301537 118.00725953 2.81301537 118.00725953 4 121 C3.83988879 123.70123106 3.39559392 126.31875231 3 129 C3.66 129.33 4.32 129.66 5 130 C4.814375 130.928125 4.62875 131.85625 4.4375 132.8125 C3.75876119 136.01343771 3.75876119 136.01343771 5 139 C4.44140625 141.15625 4.44140625 141.15625 3.5625 143.5 C1.95036829 147.83757411 1.97067151 151.1220418 2.5 155.6875 C2.5928125 156.49574219 2.685625 157.30398438 2.78125 158.13671875 C2.8534375 158.75160156 2.925625 159.36648438 3 160 C1.68 159.67 0.36 159.34 -1 159 C-1.12375 159.969375 -1.2475 160.93875 -1.375 161.9375 C-1.58125 162.948125 -1.7875 163.95875 -2 165 C-2.66 165.33 -3.32 165.66 -4 166 C-5.11935716 167.57984007 -5.11935716 167.57984007 -6.125 169.4375 C-6.65480469 170.36369141 -6.65480469 170.36369141 -7.1953125 171.30859375 C-8.14320325 172.98882718 -8.14320325 172.98882718 -8 175 C-7.34 175.33 -6.68 175.66 -6 176 C-7.65 176.33 -9.3 176.66 -11 177 C-11.12375 177.556875 -11.2475 178.11375 -11.375 178.6875 C-11.58125 179.450625 -11.7875 180.21375 -12 181 C-12.144375 181.86625 -12.28875 182.7325 -12.4375 183.625 C-14 186 -14 186 -16.35546875 186.76171875 C-18.89958658 187.26767166 -21.42607644 187.68182126 -24 188 C-22.7625 186.6078125 -22.7625 186.6078125 -21.5 185.1875 C-2.25748 162.53318568 -0.38486633 139.32839221 -0.39249516 110.80430102 C-0.38933009 106.89786752 -0.36363862 102.99157749 -0.34051514 99.08522034 C-0.3002232 91.71572541 -0.27967814 84.34631835 -0.26654124 76.97673041 C-0.25057943 68.57496695 -0.21212613 60.17335112 -0.17194796 51.77167404 C-0.08991667 34.51449364 -0.03559595 17.25733745 0 0 Z " fill="#138AF8" transform="translate(637,495)"/>
<path d="M0 0 C0.33 0 0.66 0 1 0 C1.14400178 6.91932009 1.28622023 13.83867526 1.42724609 20.75805664 C1.47534576 23.10799982 1.52384156 25.45793493 1.57275391 27.80786133 C1.64331583 31.20131375 1.71241486 34.59479342 1.78125 37.98828125 C1.80312378 39.02519608 1.82499756 40.0621109 1.84753418 41.13044739 C1.96369036 46.93343624 2.00223383 52.72399968 1.91003418 58.52775574 C2.00423814 61.11646336 2.4695314 63.46892141 3 66 C3 68.33333333 3 70.66666667 3 73 C2.34 73 1.68 73 1 73 C1.165 73.61875 1.33 74.2375 1.5 74.875 C2.40944777 80.55904854 2.61889422 86.43665716 1 92 C1.66 92.33 2.32 92.66 3 93 C2.34 93 1.68 93 1 93 C1.0721875 93.61488281 1.144375 94.22976563 1.21875 94.86328125 C1.3115625 95.67152344 1.404375 96.47976563 1.5 97.3125 C1.5928125 98.11300781 1.685625 98.91351563 1.78125 99.73828125 C2 102 2 102 2 105 C2.00483193 106.44401202 2.0101828 107.88802234 2.01586914 109.33203125 C2.03381506 114.17479839 2.04540459 119.01756106 2.05493164 123.86035156 C2.05997723 125.9534556 2.06681318 128.04655609 2.07543945 130.13964844 C2.08754316 133.15560775 2.09323524 136.17152087 2.09765625 139.1875 C2.10281754 140.12505127 2.10797882 141.06260254 2.11329651 142.02856445 C2.11337204 142.89956787 2.11344757 143.77057129 2.11352539 144.66796875 C2.115746 145.43391357 2.11796661 146.1998584 2.12025452 146.98901367 C2 149 2 149 1 152 C1.66 152.33 2.32 152.66 3 153 C3.12606653 160.43792506 3.12606653 160.43792506 2.50219727 163.21948242 C1.92121416 166.43621389 1.8703398 169.45763148 1.8671875 172.7265625 C1.86589844 174.0053125 1.86460937 175.2840625 1.86328125 176.6015625 C1.86537598 177.26188477 1.8674707 177.92220703 1.86962891 178.60253906 C1.87500193 180.62572665 1.86965888 182.64869408 1.86328125 184.671875 C1.86457031 185.94804688 1.86585938 187.22421875 1.8671875 188.5390625 C1.86831543 189.70646973 1.86944336 190.87387695 1.87060547 192.07666016 C1.86908121 195.06385757 1.86908121 195.06385757 3 198 C2.7045913 199.34224535 2.3646443 200.67488739 2 202 C1.78351622 203.91360971 1.59743032 205.83083621 1.4375 207.75 C1.35371094 208.73484375 1.26992188 209.7196875 1.18359375 210.734375 C1.12300781 211.48203125 1.06242187 212.2296875 1 213 C1.66 213.33 2.32 213.66 3 214 C2.91621094 214.62648438 2.83242188 215.25296875 2.74609375 215.8984375 C2.59333984 217.12433594 2.59333984 217.12433594 2.4375 218.375 C2.33308594 219.18710937 2.22867187 219.99921875 2.12109375 220.8359375 C1.81762672 223.04899186 1.81762672 223.04899186 3 225 C3 228.47976503 2.6465936 231.35538361 2 234.75 C1.814375 235.73484375 1.62875 236.7196875 1.4375 237.734375 C1.293125 238.48203125 1.14875 239.2296875 1 240 C1.66 240 2.32 240 3 240 C3.33 241.32 3.66 242.64 4 244 C3.34 244.33 2.68 244.66 2 245 C1.01 246.98 1.01 246.98 0 249 C0 166.83 0 84.66 0 0 Z " fill="#01D0FD" transform="translate(298,344)"/>
<path d="M0 0 C0.99 0.33 1.98 0.66 3 1 C3 1.66 3 2.32 3 3 C4.79824219 2.88410522 4.79824219 2.88410522 6.6328125 2.76586914 C27.71382001 1.57959716 48.80506574 2.09869076 69.90496826 2.39489746 C75.1149705 2.46661218 80.32506545 2.53080365 85.53515625 2.59570312 C95.69020611 2.72327079 105.84512929 2.85893337 116 3 C112.0338427 5.64410487 108.62392059 5.27116929 104.0214386 5.24050903 C103.09190894 5.24221788 102.16237928 5.24392673 101.20468205 5.24568737 C98.07688838 5.24899265 94.94930725 5.23796145 91.8215332 5.22705078 C89.58466599 5.22648689 87.3477984 5.22680279 85.1109314 5.22793579 C79.02656013 5.22851117 72.94226722 5.21672687 66.85791421 5.20278788 C60.50376546 5.19031139 54.14961504 5.18911245 47.79545593 5.18673706 C37.12656127 5.18122097 26.45769766 5.16871642 15.78881836 5.15087891 C4.79923649 5.13252429 -6.19033754 5.11836574 -17.17993164 5.10986328 C-18.19582138 5.10907511 -18.19582138 5.10907511 -19.23223414 5.10827102 C-22.62980636 5.10566097 -26.02737864 5.10313354 -29.42495096 5.10064721 C-57.61665404 5.07990967 -85.80832523 5.04453119 -114 5 C-114 4.67 -114 4.34 -114 4 C-113.43070109 3.99761165 -112.86140219 3.99522329 -112.2748518 3.99276257 C-98.42898858 3.93365249 -84.58330215 3.8579386 -70.73762798 3.76428509 C-64.04197367 3.71949898 -57.34638827 3.67989182 -50.65063477 3.65356445 C-44.19257328 3.62761372 -37.7347494 3.58726981 -31.27683449 3.53681374 C-28.80923219 3.52008922 -26.34158874 3.50860987 -23.87393761 3.50238609 C-20.42571291 3.49280576 -16.97810382 3.46481887 -13.5300293 3.43237305 C-11.98931007 3.43452568 -11.98931007 3.43452568 -10.41746521 3.4367218 C-9.47937012 3.42418365 -8.54127502 3.41164551 -7.57475281 3.39872742 C-6.35107262 3.39181397 -6.35107262 3.39181397 -5.10267162 3.38476086 C-2.52989325 2.91397674 -1.63581943 1.98748669 0 0 Z " fill="#0CA5C5" transform="translate(422,691)"/>
<path d="M0 0 C0 3.1241156 -0.53503505 4.72602413 -1.75 7.5625 C-2.23726562 8.74005859 -2.23726562 8.74005859 -2.734375 9.94140625 C-4.22121052 12.35980847 -5.45160729 12.87601378 -8 14 C-8.33 14.66 -8.66 15.32 -9 16 C-9.99 16 -10.98 16 -12 16 C-11.505 17.485 -11.505 17.485 -11 19 C-11.763125 19.2475 -12.52625 19.495 -13.3125 19.75 C-16.30497069 21.14184683 -17.34445832 22.18557915 -19 25 C-19.70514846 27.14733927 -19.70514846 27.14733927 -20 29 C-20.763125 29.061875 -21.52625 29.12375 -22.3125 29.1875 C-25.20537182 29.77100116 -25.20537182 29.77100116 -26.8125 32.4375 C-28.14015367 34.83172339 -28.14015367 34.83172339 -28 37 C-29.32 37 -30.64 37 -32 37 C-32 38.32 -32 39.64 -32 41 C-33.40588892 42.27510855 -34.82443724 43.54223585 -36.33203125 44.6953125 C-38.76927276 46.60172624 -40.84581362 48.78245519 -43 51 C-42.67 51.66 -42.34 52.32 -42 53 C-43.65 53 -45.3 53 -47 53 C-47.33 54.32 -47.66 55.64 -48 57 C-48.66 57 -49.32 57 -50 57 C-50.33 58.32 -50.66 59.64 -51 61 C-51.66 61 -52.32 61 -53 61 C-53.268125 61.804375 -53.53625 62.60875 -53.8125 63.4375 C-54.204375 64.283125 -54.59625 65.12875 -55 66 C-56.485 66.495 -56.485 66.495 -58 67 C-58.33 67.99 -58.66 68.98 -59 70 C-60.9375 71.125 -60.9375 71.125 -63 72 C-63.99 72.495 -63.99 72.495 -65 73 C-65.33 73.99 -65.66 74.98 -66 76 C-67.6222454 77.70993434 -69.29413425 79.37347684 -71 81 C-72.0209375 82.175625 -72.0209375 82.175625 -73.0625 83.375 C-73.701875 83.91125 -74.34125 84.4475 -75 85 C-77.12109375 84.6015625 -77.12109375 84.6015625 -79 84 C-67.26758982 71.1887475 -67.26758982 71.1887475 -61.5703125 65.6015625 C-59.82086777 63.81730294 -58.19284418 61.95603876 -56.5625 60.0625 C-54.14382221 57.25423653 -51.64100317 54.60029407 -49 52 C-46.44130741 49.48044611 -44.01829389 46.91881218 -41.6875 44.1875 C-38.7774953 40.79804373 -35.67839675 37.63548893 -32.5 34.5 C-29.40507389 31.44663047 -26.38065663 28.37676245 -23.5625 25.0625 C-20.06961018 20.96361484 -16.25512529 17.2271287 -12.42675781 13.44628906 C-8.41325178 9.46332334 -4.65380857 5.31598747 -1 1 C-0.67 0.67 -0.34 0.34 0 0 Z " fill="#A234F7" transform="translate(660,291)"/>
<path d="M0 0 C22.11341207 -0.07001846 44.22680592 -0.122953 66.34030628 -0.15543652 C76.60752374 -0.17091871 86.8746724 -0.192034 97.1418457 -0.22631836 C106.0886083 -0.25617938 115.03532109 -0.27556516 123.98213214 -0.28226548 C128.72131845 -0.28618335 133.46036223 -0.29541882 138.19950294 -0.31719017 C142.65719908 -0.3375033 147.11469354 -0.34384433 151.57243156 -0.33932304 C153.21115336 -0.34015057 154.84988167 -0.346147 156.48856354 -0.35761642 C158.72108567 -0.37248 160.95284018 -0.36897664 163.18537903 -0.36076355 C164.43625211 -0.36352893 165.68712519 -0.36629431 166.97590351 -0.36914349 C170 0 170 0 171.92591381 1.52254772 C172.45758647 2.2538866 172.45758647 2.2538866 173 3 C172.42716089 2.83775783 171.85432178 2.67551565 171.26412392 2.50835705 C169.01602626 2.00359833 167.07350492 1.87161151 164.77401733 1.86628723 C163.93840775 1.86202225 163.10279816 1.85775726 162.24186707 1.85336304 C160.87956718 1.85404282 160.87956718 1.85404282 159.48974609 1.85473633 C158.52677109 1.85137772 157.56379608 1.8480191 156.57164001 1.84455872 C153.38889273 1.83505992 150.20619807 1.83310644 147.0234375 1.83203125 C144.814341 1.82881903 142.60524472 1.82545498 140.39614868 1.82194519 C135.76767483 1.81595739 131.13921964 1.81410504 126.51074219 1.81469727 C120.56744759 1.81479912 114.62427184 1.80112135 108.68100548 1.78392506 C104.12067103 1.77283403 99.56036563 1.77077713 95.00001907 1.77130699 C92.80787367 1.77012347 90.6157276 1.76568105 88.42359543 1.75797462 C85.36613237 1.74822879 82.3089317 1.75103077 79.25146484 1.75708008 C78.33921646 1.75146057 77.42696808 1.74584106 76.48707581 1.74005127 C71.75906409 1.52707929 71.75906409 1.52707929 68 4 C67.443125 3.835 66.88625 3.67 66.3125 3.5 C63.77227407 2.75635986 63.77227407 2.75635986 60.4375 4.0625 C59.303125 4.371875 58.16875 4.68125 57 5 C56.01 4.34 55.02 3.68 54 3 C53.236875 3.33 52.47375 3.66 51.6875 4 C48.14443221 5.31835081 46.40362087 4.42477153 43 3 C42.67 3.66 42.34 4.32 42 5 C41.34 4.34 40.68 3.68 40 3 C39.01 3.33 38.02 3.66 37 4 C36.34 3.814375 35.68 3.62875 35 3.4375 C34.34 3.293125 33.68 3.14875 33 3 C32.01 3.66 31.02 4.32 30 5 C29.67 4.34 29.34 3.68 29 3 C25.53934159 2.83118739 22.91099013 3.02589378 19.5625 4 C14.59247267 5.39509539 9.94989144 5.58396526 5 4 C5 3.34 5 2.68 5 2 C4.34 2 3.68 2 3 2 C3 2.66 3 3.32 3 4 C1.68 3.34 0.36 2.68 -1 2 C-0.67 1.34 -0.34 0.68 0 0 Z " fill="#1AC8F9" transform="translate(367,628)"/>
<path d="M0 0 C0.33 0 0.66 0 1 0 C1.84517307 7.67003097 2.10155387 15.19482479 1.9921875 22.90625 C1.97469667 25.13541231 1.95778601 27.36457924 1.94140625 29.59375 C1.91028172 33.06783989 1.87444984 36.54169623 1.82861328 40.015625 C1.78645503 43.39586393 1.76290756 46.77582119 1.7421875 50.15625 C1.72356659 51.19994751 1.70494568 52.24364502 1.6857605 53.31896973 C1.68230621 54.28427612 1.67885193 55.24958252 1.67529297 56.24414062 C1.66561493 57.09254517 1.65593689 57.94094971 1.64596558 58.81506348 C2.07534406 61.46498867 2.95102905 62.33452176 5 64 C4.50757813 64.3403125 4.01515625 64.680625 3.5078125 65.03125 C1.25048488 67.9786415 1.71968601 70.95478943 1.875 74.5 C2.10742188 81.67773438 2.10742188 81.67773438 1 85 C1.66 85.33 2.32 85.66 3 86 C2.34 86 1.68 86 1 86 C1 86.66 1 87.32 1 88 C1.99 88.33 2.98 88.66 4 89 C4 90.32 4 91.64 4 93 C5.4166747 94.7511573 5.4166747 94.7511573 7 96 C6.34 96 5.68 96 5 96 C7.57766799 98.57766799 9.45880682 98.48357599 13 99 C13.66 99.33 14.32 99.66 15 100 C17.44928655 100.09855117 19.86381376 100.13900583 22.3125 100.125 C23.62863281 100.12757813 24.94476563 100.13015625 26.30078125 100.1328125 C29.86069833 100.10945629 29.86069833 100.10945629 32.73046875 99.4296875 C35.2462102 98.95338533 36.56811203 99.30788374 39 100 C40.68558459 100.09053693 42.37449336 100.13009203 44.0625 100.125 C45.34833984 100.12886719 45.34833984 100.12886719 46.66015625 100.1328125 C49.15564201 100.09365135 49.15564201 100.09365135 52 99 C52.99 99.495 52.99 99.495 54 100 C56.12348901 100.12067685 58.25070888 100.17744375 60.37744141 100.20532227 C61.35811333 100.22017166 61.35811333 100.22017166 62.3585968 100.23532104 C64.52288167 100.26694711 66.6871885 100.29169772 68.8515625 100.31640625 C70.35086645 100.33697483 71.85016459 100.35797128 73.34945679 100.37937927 C77.29825131 100.43460988 81.24709826 100.48401476 85.19598389 100.53222656 C89.22445346 100.58243439 93.25284678 100.6381242 97.28125 100.69335938 C105.18743556 100.80095303 113.09368485 100.90239529 121 101 C121 101.33 121 101.66 121 102 C106.09228487 102.09347065 91.18459247 102.16399253 76.27664661 102.20724869 C69.3544974 102.2278678 62.43253034 102.25597563 55.51049805 102.30175781 C48.83207884 102.34590766 42.15388809 102.36912868 35.475317 102.37950897 C32.92557481 102.38690772 30.37584314 102.40135544 27.82618141 102.42292023 C24.25864784 102.45189783 20.69189964 102.4559582 17.12426758 102.45410156 C16.06690903 102.46848267 15.00955048 102.48286377 13.92015076 102.49768066 C9.5465231 102.47300231 6.7506903 102.41116865 2.86723328 100.28411865 C-0.99106685 95.56440023 -0.13811048 89.7189332 -0.11352539 83.89526367 C-0.11367142 82.98745148 -0.11381744 82.07963928 -0.1139679 81.14431763 C-0.11327281 78.15217679 -0.10549931 75.16009868 -0.09765625 72.16796875 C-0.09579064 70.09003229 -0.09436741 68.01209538 -0.09336853 65.93415833 C-0.08955465 60.47122987 -0.07973399 55.00832809 -0.06866455 49.54541016 C-0.05842616 43.96842815 -0.05386571 38.39144182 -0.04882812 32.81445312 C-0.03811072 21.87629037 -0.02104784 10.93814741 0 0 Z " fill="#2FFAFA" transform="translate(298,593)"/>
<path d="M0 0 C1.46979891 0.01244421 1.46979891 0.01244421 2.96929073 0.02513981 C4.64997646 0.03569904 4.64997646 0.03569904 6.36461544 0.0464716 C7.60466839 0.05941761 8.84472134 0.07236362 10.12235165 0.08570194 C11.41972256 0.09530949 12.71709347 0.10491703 14.05377865 0.11481571 C17.62183531 0.14135307 21.18981129 0.17412088 24.75780511 0.20796561 C28.4827211 0.24225305 32.20768043 0.27086847 35.93263912 0.30007267 C42.99104594 0.35628008 50.04939849 0.41762549 57.10774606 0.48079401 C65.14144179 0.55244292 73.17518106 0.61839876 81.20892918 0.68386447 C97.73929038 0.81869588 114.26958179 0.96071548 130.79984188 1.10743046 C130.79984188 1.43743046 130.79984188 1.76743046 130.79984188 2.10743046 C87.23984188 2.10743046 43.67984188 2.10743046 -1.20015812 2.10743046 C-1.05578312 15.22493046 -0.91140812 28.34243046 -0.76265812 41.85743046 C-0.71955509 45.99757694 -0.67645206 50.13772343 -0.63204288 54.4033289 C-0.5887843 58.1182107 -0.5887843 58.1182107 -0.54425907 61.83307743 C-0.52505253 63.48621557 -0.50772692 65.13937622 -0.49189091 66.79255009 C-0.46752136 69.2982996 -0.43716282 71.80391259 -0.40548038 74.3095789 C-0.39971013 75.04465546 -0.39393988 75.77973202 -0.38799477 76.53708363 C-0.34000711 79.86209965 -0.22459726 82.92658975 0.79984188 86.10743046 C-0.19015812 85.77743046 -1.18015812 85.44743046 -2.20015812 85.10743046 C-2.69515812 82.63243046 -2.69515812 82.63243046 -3.20015812 80.10743046 C-3.86015812 80.10743046 -4.52015812 80.10743046 -5.20015812 80.10743046 C-5.03906559 79.43391544 -4.87797306 78.76040043 -4.71199894 78.06647587 C-4.11098401 74.59189863 -4.04468355 71.28986357 -4.01070499 67.7627039 C-4.00241169 67.04181583 -3.99411839 66.32092777 -3.98557377 65.57819462 C-3.9682393 64.02043384 -3.95305477 62.46264795 -3.9397974 60.90484715 C-3.91870023 58.44254229 -3.89168761 55.98036485 -3.86312199 53.51813602 C-3.79343706 47.40823589 -3.7337543 41.29824589 -3.67409611 35.188241 C-3.62324687 30.01513128 -3.56847685 24.84209326 -3.50827885 19.6690836 C-3.48163736 17.2377263 -3.4608707 14.80636247 -3.44027042 12.37494755 C-3.42367713 10.89482135 -3.40680615 9.41469823 -3.38961124 7.9345789 C-3.37708317 6.63727848 -3.36455509 5.33997807 -3.35164738 4.00336552 C-3.15027397 0.15382321 -3.15027397 0.15382321 0 0 Z " fill="#1396CD" transform="translate(368.20015811920166,541.8925695419312)"/>
<path d="M0 0 C0.33 0 0.66 0 1 0 C1.10146163 7.17150787 1.17149156 14.34283049 1.21972656 21.51489258 C1.23983564 23.95441607 1.26712683 26.3938914 1.30175781 28.83325195 C1.35030489 32.34077848 1.37297632 35.84766743 1.390625 39.35546875 C1.41127014 40.44522507 1.43191528 41.53498138 1.45318604 42.65776062 C1.45543071 50.24104639 1.45543071 50.24104639 -0.89941406 54.1652832 C-4.53954786 57.34468877 -6.87608484 57.12379549 -11.65640259 57.12025452 C-12.34823179 57.12110894 -13.04006099 57.12196337 -13.7528547 57.12284368 C-16.08216997 57.12449709 -18.41141398 57.11897939 -20.74072266 57.11352539 C-22.4060211 57.11324346 -24.07131967 57.11340136 -25.73661804 57.1139679 C-30.26735767 57.11425565 -34.798071 57.10836243 -39.32880449 57.10139394 C-44.06005248 57.09515679 -48.79130102 57.09455631 -53.52255249 57.09336853 C-62.48627304 57.09025628 -71.44998145 57.08204432 -80.41369665 57.07201904 C-90.61669114 57.0608546 -100.81968621 57.05534662 -111.02268529 57.05032361 C-132.01513032 57.03986163 -153.00756439 57.02226424 -174 57 C-174 56.67 -174 56.34 -174 56 C-144.93516494 55.32976208 -115.88445855 54.89992134 -86.8125 54.9375 C-85.81478828 54.93878403 -85.81478828 54.93878403 -84.79692078 54.94009399 C-77.28966469 54.95049573 -69.78244319 54.96800937 -62.27522278 54.99327087 C-60.51682145 54.99847147 -58.75840902 55 -57 55 C-55.22667891 55.00843018 -53.45335798 55.01689818 -51.68003845 55.02565002 C-48.71484201 55.03893711 -45.74963922 55.04712762 -42.78442383 55.05493164 C-41.21801081 55.05998301 -39.65160255 55.06682305 -38.08520508 55.07543945 C-35.8263229 55.08753426 -33.56750232 55.09323254 -31.30859375 55.09765625 C-30.60649277 55.10281754 -29.90439178 55.10797882 -29.18101501 55.11329651 C-25.46637164 55.16813006 -25.46637164 55.16813006 -22 54 C-22 54.66 -22 55.32 -22 56 C-21.21625 55.855625 -20.4325 55.71125 -19.625 55.5625 C-15.8441103 54.97581022 -12.08007773 54.60903894 -8.26953125 54.28125 C-5.83854401 54.05571177 -5.83854401 54.05571177 -3 53 C-2.26676204 50.98491642 -2.26676204 50.98491642 -2 49 C-1.34 49 -0.68 49 0 49 C-0.33 48.34 -0.66 47.68 -1 47 C-1.09694387 45.37207463 -1.13076154 43.74018305 -1.1328125 42.109375 C-1.13474609 41.09931396 -1.13667969 40.08925293 -1.13867188 39.04858398 C-1.13416016 37.96005127 -1.12964844 36.87151855 -1.125 35.75 C-1.12306641 34.64148682 -1.12113281 33.53297363 -1.11914062 32.39086914 C-1.06378395 21.57709573 -0.60034805 10.79554431 0 0 Z " fill="#7379F6" transform="translate(541,340)"/>
<path d="M0 0 C8.40577556 -0.11587396 16.81121724 -0.20470398 25.21759415 -0.25906086 C29.12109851 -0.28515031 33.02405631 -0.3205346 36.92724609 -0.37719727 C40.69443884 -0.43154313 44.46110608 -0.46142545 48.22866058 -0.47438622 C49.66563948 -0.48362174 51.10258975 -0.50165727 52.53934479 -0.52865028 C54.55231146 -0.56496318 56.56580747 -0.56704255 58.57910156 -0.56762695 C59.72493713 -0.57873001 60.87077271 -0.58983307 62.05133057 -0.60127258 C65 0 65 0 67.37094116 2.19989014 C69.15093264 5.25943076 69.49671192 6.86606039 69.48583984 10.36938477 C69.49506973 11.94110191 69.49506973 11.94110191 69.50448608 13.54457092 C69.49011505 14.66552658 69.47574402 15.78648224 69.4609375 16.94140625 C69.46002106 18.1012352 69.45910461 19.26106415 69.4581604 20.45603943 C69.4521256 22.90457255 69.43638342 25.35309833 69.41162109 27.80151367 C69.37510032 31.55219676 69.37060193 35.30189199 69.37109375 39.05273438 C69.36126294 41.43230022 69.3496061 43.81185936 69.3359375 46.19140625 C69.33371185 47.31438614 69.33148621 48.43736603 69.32919312 49.59437561 C69.31643341 50.63903488 69.30367371 51.68369415 69.29052734 52.76000977 C69.27909195 54.13637352 69.27909195 54.13637352 69.26742554 55.5405426 C68.98132963 58.17170751 68.46772674 59.80273946 67 62 C62.59345372 63.23409141 58.17745467 63.10544769 53.625 63.0625 C51.75714844 63.04896484 51.75714844 63.04896484 49.8515625 63.03515625 C48.44003906 63.01775391 48.44003906 63.01775391 47 63 C47.495 62.01 47.495 62.01 48 61 C50.328125 60.62109375 50.328125 60.62109375 53.25 60.4375 C56.92119148 60.19440759 60.40488921 59.79381096 64 59 C64 58.34 64 57.68 64 57 C64.99 56.01 64.99 56.01 66 55 C66.27114317 52.20284475 66.42230342 49.49887881 66.484375 46.6953125 C66.5084845 45.86095673 66.53259399 45.02660095 66.55743408 44.16696167 C66.60581605 42.39333483 66.64918905 40.61956547 66.68798828 38.84570312 C66.74897698 36.16988396 66.8322973 33.49544064 66.91796875 30.8203125 C67.16845116 21.65972113 67.09251141 12.99047297 65 4 C56.63598123 2.17037089 48.59116933 1.86136821 40.0625 1.90234375 C38.94182129 1.9037587 37.82114258 1.90517365 36.66650391 1.90663147 C33.11097467 1.91219861 29.55550998 1.92474502 26 1.9375 C23.579428 1.94251925 21.158855 1.94708141 18.73828125 1.95117188 C12.82549906 1.96215728 6.91275415 1.97886248 1 2 C0.67 1.34 0.34 0.68 0 0 Z " fill="#3976FB" transform="translate(438,479)"/>
<path d="M0 0 C0.78375 0.04125 1.5675 0.0825 2.375 0.125 C3.33781937 3.01345811 3.49855478 4.81370638 3.49525452 7.81364441 C3.49662918 8.77698196 3.49800385 9.74031952 3.49942017 10.73284912 C3.49402725 12.31564667 3.49402725 12.31564667 3.48852539 13.93041992 C3.48867142 15.04276505 3.48881744 16.15511017 3.4889679 17.30116272 C3.48827 20.98595108 3.48048331 24.67068919 3.47265625 28.35546875 C3.47079163 30.90708895 3.46936794 33.45870951 3.46836853 36.0103302 C3.46493763 42.04512123 3.45705231 48.07989061 3.44701904 54.11467296 C3.43584404 60.98522598 3.43034395 67.85577986 3.42532361 74.7263397 C3.41486934 88.85923649 3.39727852 102.99211726 3.375 117.125 C3.045 117.125 2.715 117.125 2.375 117.125 C1.88 61.19 1.88 61.19 1.375 4.125 C-3.08764506 5.01752901 -5.28302914 5.86391169 -9.07421875 8.1015625 C-10.59305664 8.98328125 -10.59305664 8.98328125 -12.14257812 9.8828125 C-14.26797608 11.1347413 -16.39297178 12.38735325 -18.51757812 13.640625 C-19.52626953 14.22585938 -20.53496094 14.81109375 -21.57421875 15.4140625 C-22.49549561 15.95756348 -23.41677246 16.50106445 -24.3659668 17.06103516 C-25.11144775 17.41214355 -25.85692871 17.76325195 -26.625 18.125 C-27.285 17.795 -27.945 17.465 -28.625 17.125 C-28.295 16.465 -27.965 15.805 -27.625 15.125 C-26.29166667 14.79166667 -24.95833333 14.45833333 -23.625 14.125 C-23.295 13.465 -22.965 12.805 -22.625 12.125 C-20.64611039 11.39806096 -18.64545442 10.72683749 -16.625 10.125 C-16.625 9.465 -16.625 8.805 -16.625 8.125 C-15.965 8.125 -15.305 8.125 -14.625 8.125 C-14.625 7.465 -14.625 6.805 -14.625 6.125 C-13.57699219 5.72667969 -13.57699219 5.72667969 -12.5078125 5.3203125 C-11.59773437 4.96710938 -10.68765625 4.61390625 -9.75 4.25 C-8.84507812 3.90195312 -7.94015625 3.55390625 -7.0078125 3.1953125 C-4.03427969 1.85966006 -3.33391844 0.15875802 0 0 Z " fill="#8853EC" transform="translate(634.625,377.875)"/>
<path d="M0 0 C9.4488979 -0.06950346 18.89770783 -0.12281294 28.34680557 -0.15543652 C32.734388 -0.17109403 37.12179556 -0.19233377 41.50927734 -0.22631836 C45.74327056 -0.2589089 49.97709556 -0.27685237 54.21120453 -0.28463173 C55.82675576 -0.2901758 57.44229777 -0.30100203 59.0577774 -0.31719017 C61.32029635 -0.33896085 63.58211976 -0.34196715 65.84472656 -0.34057617 C67.13268127 -0.34723801 68.42063599 -0.35389984 69.74761963 -0.36076355 C73.172533 0.01913787 74.53987912 0.65724761 77 3 C73 3 69 3 65 3 C65 2.34 65 1.68 65 1 C64.38125 1.350625 63.7625 1.70125 63.125 2.0625 C62.073125 2.5265625 62.073125 2.5265625 61 3 C60.34 2.67 59.68 2.34 59 2 C56.95510199 2.08979014 54.91289097 2.24600445 52.875 2.4375 C48.99332852 2.78139116 45.2077788 3.05227801 41.3125 2.9375 C37.91913072 2.61844149 37.91913072 2.61844149 36 5 C35.34 4.34 34.68 3.68 34 3 C32.08993694 2.6823754 32.08993694 2.6823754 30 2.75 C29.29875 2.74484375 28.5975 2.7396875 27.875 2.734375 C25.7564331 2.84294485 25.7564331 2.84294485 24 5 C21.5390625 5.265625 21.5390625 5.265625 18.625 5.25 C17.66851562 5.25515625 16.71203125 5.2603125 15.7265625 5.265625 C12.93163116 4.99333943 11.44752056 4.28765138 9 3 C6.64435404 2.55188863 6.64435404 2.55188863 4.25 2.375 C3.45078125 2.30023437 2.6515625 2.22546875 1.828125 2.1484375 C1.22484375 2.09945312 0.6215625 2.05046875 0 2 C0 1.34 0 0.68 0 0 Z " fill="#0699FD" transform="translate(463,629)"/>
<path d="M0 0 C2.24869692 0.00502593 4.49739493 0.0095869 6.74609375 0.01367188 C12.2057533 0.02458883 17.66537143 0.04123999 23.125 0.0625 C23.125 0.3925 23.125 0.7225 23.125 1.0625 C29.725 1.3925 36.325 1.7225 43.125 2.0625 C43.125 2.3925 43.125 2.7225 43.125 3.0625 C30.10779257 4.02929525 17.17454568 4.25460688 4.125 4.0625 C3.37524902 4.05154297 2.62549805 4.04058594 1.85302734 4.02929688 C-3.37251895 3.9504207 -8.59749299 3.85442397 -13.82244873 3.74310303 C-15.60205243 3.70614711 -17.38172019 3.67215255 -19.16143799 3.64117432 C-21.68345725 3.59582974 -24.20488596 3.53782859 -26.7265625 3.4765625 C-27.4892041 3.46500122 -28.2518457 3.45343994 -29.03759766 3.44152832 C-32.78006878 3.33688686 -35.6934116 3.14152681 -38.875 1.0625 C-25.92885941 -0.21882411 -12.99377234 -0.05077938 0 0 Z " fill="#3967F8" transform="translate(422.875,332.9375)"/>
<path d="M0 0 C0.33 0 0.66 0 1 0 C4.07962279 16.43481865 -1.32293021 34.0212956 -10 48 C-12.19881677 51.12892055 -14.48950787 54.11560479 -17 57 C-17 54.35220307 -16.82804069 52.48412207 -16 50 C-15.01 49.505 -15.01 49.505 -14 49 C-12.74172877 47.15017528 -12.74172877 47.15017528 -12 45 C-12.495 43.515 -12.495 43.515 -13 42 C-12.01 42 -11.02 42 -10 42 C-10 41.34 -10 40.68 -10 40 C-10.66 39.67 -11.32 39.34 -12 39 C-12 38.01 -12 37.02 -12 36 C-11.38640625 35.91363281 -10.7728125 35.82726562 -10.140625 35.73828125 C-7.90320924 35.18631289 -7.90320924 35.18631289 -6.734375 33.35546875 C-4.17962719 27.72894083 -3.87207124 23.4107747 -4.125 17.28515625 C-3.89653046 11.28069114 -1.8782407 5.66826211 0 0 Z " fill="#2C8AF4" transform="translate(692,614)"/>
<path d="M0 0 C0.33 0 0.66 0 1 0 C1.84517307 7.67003097 2.10155387 15.19482479 1.9921875 22.90625 C1.97469667 25.13541231 1.95778601 27.36457924 1.94140625 29.59375 C1.91028172 33.06783989 1.87444984 36.54169623 1.82861328 40.015625 C1.78645503 43.39586393 1.76290756 46.77582119 1.7421875 50.15625 C1.72356659 51.19994751 1.70494568 52.24364502 1.6857605 53.31896973 C1.68230621 54.28427612 1.67885193 55.24958252 1.67529297 56.24414062 C1.66561493 57.09254517 1.65593689 57.94094971 1.64596558 58.81506348 C2.07534406 61.46498867 2.95102905 62.33452176 5 64 C4.50757813 64.3403125 4.01515625 64.680625 3.5078125 65.03125 C1.25048488 67.9786415 1.71968601 70.95478943 1.875 74.5 C2.10742188 81.67773438 2.10742188 81.67773438 1 85 C1.66 85.33 2.32 85.66 3 86 C2.34 86 1.68 86 1 86 C1 86.66 1 87.32 1 88 C1.99 88.33 2.98 88.66 4 89 C4 90.32 4 91.64 4 93 C5.4166747 94.7511573 5.4166747 94.7511573 7 96 C6.34 96 5.68 96 5 96 C4.67 96.99 4.34 97.98 4 99 C1 97 1 97 0.32001591 95.12572861 C0.00635939 93.04224268 -0.12310055 91.09441003 -0.12025452 88.98834229 C-0.12162918 88.2003273 -0.12300385 87.41231232 -0.12442017 86.60041809 C-0.12082489 85.74518051 -0.11722961 84.88994293 -0.11352539 84.00878906 C-0.11367142 83.10112289 -0.11381744 82.19345673 -0.1139679 81.25828552 C-0.11327171 78.26070763 -0.10549302 75.26319202 -0.09765625 72.265625 C-0.09579103 70.1862593 -0.09436762 68.10689315 -0.09336853 66.02752686 C-0.08955157 60.55636378 -0.07972826 55.08522728 -0.06866455 49.61407471 C-0.05843281 44.03048054 -0.05386713 38.44688209 -0.04882812 32.86328125 C-0.03810528 21.9088425 -0.02103868 10.95442346 0 0 Z " fill="#02F9F3" transform="translate(298,593)"/>
<path d="M0 0 C1.32 0.33 2.64 0.66 4 1 C2.93088159 8.48382886 -1.34244122 12.80363724 -6.83203125 17.64453125 C-13.1650749 22.35331709 -22.09031358 27.87649848 -30 29 C-30.99 28.34 -31.98 27.68 -33 27 C-32.67 26.34 -32.34 25.68 -32 25 C-30.989375 24.87625 -29.97875 24.7525 -28.9375 24.625 C-24.53685775 23.92648536 -20.57380118 22.7457253 -17 20 C-16.2270057 17.93827709 -16.2270057 17.93827709 -16 16 C-14.68 16.33 -13.36 16.66 -12 17 C-11.67 16.01 -11.34 15.02 -11 14 C-8.9375 12.8125 -8.9375 12.8125 -7 12 C-7.33 11.01 -7.66 10.02 -8 9 C-5.36 9 -2.72 9 0 9 C0 6.03 0 3.06 0 0 Z " fill="#1B8EF6" transform="translate(672,663)"/>
<path d="M0 0 C0.33 0 0.66 0 1 0 C1.01030746 1.03094788 1.02061493 2.06189575 1.03123474 3.12408447 C1.1289531 12.83555267 1.23168577 22.54695656 1.33933926 32.25831985 C1.39452462 37.25112971 1.44793766 42.24394546 1.49731445 47.23681641 C1.54502263 52.05439085 1.59736785 56.87189455 1.65294075 61.68938446 C1.67333504 63.5281778 1.69205293 65.36699052 1.70907402 67.20581818 C1.73318277 69.779536 1.76322851 72.35312069 1.79467773 74.92675781 C1.8004332 75.68848801 1.80618866 76.4502182 1.81211853 77.23503113 C1.86383054 81.253042 1.86383054 81.253042 2.57533264 85.19207764 C3.15633969 87.66557981 2.55317389 89.53776367 2 92 C1.89189966 93.65584614 1.82532052 95.31478891 1.79467773 96.97387695 C1.77473251 97.93449539 1.75478729 98.89511383 1.73423767 99.88484192 C1.71752518 100.9089769 1.70081268 101.93311188 1.68359375 102.98828125 C1.66281265 104.04661667 1.64203156 105.10495209 1.62062073 106.19535828 C1.55536897 109.56767441 1.49635363 112.94006674 1.4375 116.3125 C1.3942916 118.60222134 1.35067657 120.89193505 1.30664062 123.18164062 C1.19971259 128.78768045 1.09790137 134.39379566 1 140 C0.67 140 0.34 140 0 140 C0 93.8 0 47.6 0 0 Z " fill="#5F85EF" transform="translate(637,495)"/>
<path d="M0 0 C2.095051 0.00502916 4.19010319 0.00958954 6.28515625 0.01367188 C11.35680062 0.02455578 16.42838683 0.04174088 21.5 0.0625 C21.5 0.3925 21.5 0.7225 21.5 1.0625 C18.2 1.3925 14.9 1.7225 11.5 2.0625 C11.5 2.3925 11.5 2.7225 11.5 3.0625 C-6.88935599 4.34090443 -25.10492763 3.80145308 -43.5 3.0625 C-32.77193596 -3.47969147 -12.15642569 -0.05128885 0 0 Z " fill="#2182FA" transform="translate(376.5,332.9375)"/>
<path d="M0 0 C0.99 0.495 0.99 0.495 2 1 C1.99476318 1.95366455 1.98952637 2.9073291 1.98413086 3.88989258 C1.96602735 7.42894553 1.95454839 10.96799438 1.94506836 14.50708008 C1.9400404 16.0386626 1.93321716 17.57024033 1.92456055 19.10180664 C1.91242771 21.30356022 1.90675633 23.50525033 1.90234375 25.70703125 C1.89718246 26.39150833 1.89202118 27.07598541 1.88670349 27.78120422 C1.8863464 30.80906242 2.03383381 33.10150142 3 36 C2.7045913 37.34224535 2.3646443 38.67488739 2 40 C1.78351622 41.91360971 1.59743032 43.83083621 1.4375 45.75 C1.35371094 46.73484375 1.26992188 47.7196875 1.18359375 48.734375 C1.12300781 49.48203125 1.06242187 50.2296875 1 51 C1.66 51.33 2.32 51.66 3 52 C2.91621094 52.62648438 2.83242188 53.25296875 2.74609375 53.8984375 C2.64425781 54.71570313 2.54242188 55.53296875 2.4375 56.375 C2.28087891 57.59316406 2.28087891 57.59316406 2.12109375 58.8359375 C1.81762672 61.04899186 1.81762672 61.04899186 3 63 C3 66.47976503 2.6465936 69.35538361 2 72.75 C1.814375 73.73484375 1.62875 74.7196875 1.4375 75.734375 C1.293125 76.48203125 1.14875 77.2296875 1 78 C1.66 78 2.32 78 3 78 C3.33 79.32 3.66 80.64 4 82 C3.01 82.495 3.01 82.495 2 83 C1.34 84.32 0.68 85.64 0 87 C0 58.29 0 29.58 0 0 Z " fill="#01E2F9" transform="translate(298,506)"/>
<path d="M0 0 C0.33 0 0.66 0 1 0 C1.36402369 1.43503555 1.71586591 2.87316506 2.0625 4.3125 C2.25972656 5.11300781 2.45695313 5.91351562 2.66015625 6.73828125 C3 9 3 9 2 12 C1.74806181 14.32902863 1.54536341 16.66358747 1.375 19 C1.27960937 20.2375 1.18421875 21.475 1.0859375 22.75 C0.81471864 26.01281238 0.81471864 26.01281238 2 29 C1.83988879 31.70123106 1.39559392 34.31875231 1 37 C1.66 37.33 2.32 37.66 3 38 C2.814375 38.928125 2.62875 39.85625 2.4375 40.8125 C1.75876119 44.01343771 1.75876119 44.01343771 3 47 C2.0625 49.6875 2.0625 49.6875 1 52 C0.34 51.67 -0.32 51.34 -1 51 C-1.02526787 43.89755001 -1.04283201 36.79511152 -1.05493164 29.69262695 C-1.05997349 27.27432828 -1.06680678 24.85603267 -1.07543945 22.43774414 C-1.08751157 18.97020717 -1.09322963 15.50271034 -1.09765625 12.03515625 C-1.10281754 10.94662857 -1.10797882 9.85810089 -1.11329651 8.73658752 C-1.11337204 7.73562546 -1.11344757 6.73466339 -1.11352539 5.70336914 C-1.115746 4.81734512 -1.11796661 3.93132111 -1.12025452 3.01844788 C-1 1 -1 1 0 0 Z " fill="#1A7BFE" transform="translate(639,587)"/>
<path d="M0 0 C0.33 0.66 0.66 1.32 1 2 C0.67 2.66 0.34 3.32 0 4 C-0.66 4 -1.32 4 -2 4 C-2.33 5.32 -2.66 6.64 -3 8 C-3.66 8 -4.32 8 -5 8 C-5.268125 8.804375 -5.53625 9.60875 -5.8125 10.4375 C-6.204375 11.283125 -6.59625 12.12875 -7 13 C-7.99 13.33 -8.98 13.66 -10 14 C-10.33 14.99 -10.66 15.98 -11 17 C-12.9375 18.125 -12.9375 18.125 -15 19 C-15.66 19.33 -16.32 19.66 -17 20 C-17.33 20.99 -17.66 21.98 -18 23 C-19.6222454 24.70993434 -21.29413425 26.37347684 -23 28 C-23.680625 28.78375 -24.36125 29.5675 -25.0625 30.375 C-25.701875 30.91125 -26.34125 31.4475 -27 32 C-29.12109375 31.6015625 -29.12109375 31.6015625 -31 31 C-18.57483553 17.43229167 -18.57483553 17.43229167 -12 11 C-11.175 10.154375 -10.35 9.30875 -9.5 8.4375 C-6.45725865 5.47082718 -3.25493455 2.72964252 0 0 Z " fill="#8A31F2" transform="translate(612,344)"/>
<path d="M0 0 C-0.66 2.97 -1.32 5.94 -2 9 C-4.31 9 -6.62 9 -9 9 C-9 9.66 -9 10.32 -9 11 C-6.03 11 -3.06 11 0 11 C0 11.33 0 11.66 0 12 C-5.94 12 -11.88 12 -18 12 C-18 11.01 -18 10.02 -18 9 C-15.76953125 7.24609375 -15.76953125 7.24609375 -12.8125 5.4375 C-11.84957031 4.83808594 -10.88664063 4.23867188 -9.89453125 3.62109375 C-3.42891566 0 -3.42891566 0 0 0 Z " fill="#1496F5" transform="translate(618,682)"/>
<path d="M0 0 C1.125 1.625 1.125 1.625 0.8125 4.3125 C0.585625 5.075625 0.35875 5.83875 0.125 6.625 C-3.875 1.875 -3.875 1.875 -3.875 -0.375 C-5.71384766 -0.09849609 -5.71384766 -0.09849609 -7.58984375 0.18359375 C-13.6085091 0.85233434 -19.43115842 0.27039391 -25.4375 -0.3125 C-26.54158203 -0.41240234 -27.64566406 -0.51230469 -28.78320312 -0.61523438 C-31.48130987 -0.86051681 -34.17838261 -1.11393395 -36.875 -1.375 C-33.03997348 -5.21002652 -26.25216358 -4.00943596 -21.0625 -4.1875 C-19.77794922 -4.25130859 -18.49339844 -4.31511719 -17.16992188 -4.38085938 C-15.93177734 -4.42662109 -14.69363281 -4.47238281 -13.41796875 -4.51953125 C-11.7167688 -4.58684448 -11.7167688 -4.58684448 -9.98120117 -4.65551758 C-5.74247743 -4.27272314 -3.34750561 -2.45483745 0 0 Z " fill="#6744F8" transform="translate(540.875,336.375)"/>
<path d="M0 0 C0.33 0 0.66 0 1 0 C1.19255164 5.33817081 1.37122798 10.67655874 1.53710938 16.015625 C1.595477 17.83150657 1.65762216 19.64727083 1.72363281 21.46289062 C1.81790706 24.07400148 1.89854918 26.68523395 1.9765625 29.296875 C2.00875885 30.10743347 2.0409552 30.91799194 2.0741272 31.75311279 C2.26850867 39.08138151 2.26850867 39.08138151 0 42 C-4.40654628 43.23409141 -8.82254533 43.10544769 -13.375 43.0625 C-15.24285156 43.04896484 -15.24285156 43.04896484 -17.1484375 43.03515625 C-18.55996094 43.01775391 -18.55996094 43.01775391 -20 43 C-19.67 42.34 -19.34 41.68 -19 41 C-16.671875 40.62109375 -16.671875 40.62109375 -13.75 40.4375 C-10.07880852 40.19440759 -6.59511079 39.79381096 -3 39 C-3 38.34 -3 37.68 -3 37 C-2.34 36.34 -1.68 35.68 -1 35 C-0.75456859 32.35212211 -0.62650614 29.80096177 -0.5859375 27.1484375 C-0.56657135 26.37440582 -0.5472052 25.60037415 -0.5272522 24.80288696 C-0.4674017 22.32703725 -0.42104989 19.85114117 -0.375 17.375 C-0.33682518 15.69789623 -0.29777375 14.02081216 -0.2578125 12.34375 C-0.16169591 8.22932647 -0.07768561 4.11481114 0 0 Z " fill="#226AFD" transform="translate(505,499)"/>
<path d="M0 0 C2.54030459 2.54030459 2.39901205 3.84693422 2.6875 7.375 C2.77386719 8.33148438 2.86023438 9.28796875 2.94921875 10.2734375 C2.99593579 12.78178325 2.66266478 14.60910549 2 17 C2.165 17.598125 2.33 18.19625 2.5 18.8125 C3.22322004 21.97658769 2.45597075 24.80820478 2 28 C2.39938767 30.09821215 2.39938767 30.09821215 3 32 C3.04165365 33.66614608 3.04165365 35.33385392 3 37 C3 38.32 3 39.64 3 41 C2.30769231 47.69230769 2.30769231 47.69230769 0 50 C0 33.5 0 17 0 0 Z M1 37 C2 39 2 39 2 39 Z " fill="#594BFE" transform="translate(638,475)"/>
<path d="M0 0 C0.92645446 2.77936338 1.10056322 4.25743922 1.02172852 7.10424805 C1.00163223 7.92487228 0.98153595 8.74549652 0.96083069 9.59098816 C0.93379562 10.47232925 0.90676056 11.35367035 0.87890625 12.26171875 C0.85529526 13.16751175 0.83168427 14.07330475 0.80735779 15.00654602 C0.73076856 17.90035865 0.64672369 20.79390048 0.5625 23.6875 C0.50927458 25.64907528 0.45653421 27.61066378 0.40429688 29.57226562 C0.27515978 34.38168199 0.13933558 39.19086873 0 44 C-0.99 44 -1.98 44 -3 44 C-3.33 39.71 -3.66 35.42 -4 31 C-3.01 31 -2.02 31 -1 31 C-1.350625 30.46375 -1.70125 29.9275 -2.0625 29.375 C-3 27 -3 27 -2.5625 24.4375 C-1.87326321 20.22549739 -2.34290652 16.51029853 -2.84375 12.29296875 C-2.8953125 11.53628906 -2.946875 10.77960938 -3 10 C-2.67 9.67 -2.34 9.34 -2 9 C-1.79395915 7.67218122 -1.6337041 6.33704105 -1.5 5 C-1.11111111 1.11111111 -1.11111111 1.11111111 0 0 Z " fill="#9D23FC" transform="translate(693,379)"/>
<path d="M0 0 C2.8102926 2.8102926 2.98137924 5.26206211 3.0234375 9.1875 C3.00820895 10.7306595 2.98027689 12.27376459 2.9375 13.81640625 C3.00063612 16.02222429 3.38663143 17.88675358 4 20 C3.34 20 2.68 20 2 20 C1.75571657 25.7974423 1.75571657 25.7974423 4 31 C3.34 31 2.68 31 2 31 C1.505 33.475 1.505 33.475 1 36 C0.67 36 0.34 36 0 36 C0 24.12 0 12.24 0 0 Z " fill="#8336FE" transform="translate(638,396)"/>
<path d="M0 0 C0.33 0 0.66 0 1 0 C1.19620767 2.06168985 1.38160753 4.12440998 1.5625 6.1875 C1.66691406 7.33605469 1.77132812 8.48460937 1.87890625 9.66796875 C1.98859985 12.68631199 1.74002389 15.08923936 1 18 C0.34 18 -0.32 18 -1 18 C-1.33 18.99 -1.66 19.98 -2 21 C-4 19 -4 19 -4.08203125 16.93359375 C-3.4366627 10.95691982 -2.15554597 5.61255367 0 0 Z " fill="#2B74F3" transform="translate(692,614)"/>
<path d="M0 0 C2 0.33333333 4 0.66666667 6 1 C8.33302989 1.03762951 10.66713319 1.04665734 13 1 C13 1.66 13 2.32 13 3 C-4.16 3 -21.32 3 -39 3 C-34.73134447 0.86567224 -31.81344581 0.75372297 -27.20703125 0.83984375 C-26.46039719 0.84504532 -25.71376312 0.85024689 -24.94450378 0.85560608 C-22.56696866 0.87337847 -20.18986962 0.90456445 -17.8125 0.9375 C-15.42446243 0.96508657 -13.03648364 0.98977544 -10.64836121 1.00868225 C-9.16369677 1.02097513 -7.67906549 1.03861323 -6.1945343 1.06199646 C-4.46298238 1.07893265 -2.73105911 1.04464584 -1 1 C-0.67 0.67 -0.34 0.34 0 0 Z " fill="#697DF7" transform="translate(482,394)"/>
<path d="M0 0 C3.21624106 0.1421543 3.93189611 0.39551688 6.5625 2.5 C7.0575 3.16 7.5525 3.82 8.0625 4.5 C1.63236533 6.23955334 -4.28699576 6.74991456 -10.9375 6.5 C-10.6075 5.51 -10.2775 4.52 -9.9375 3.5 C-9.9375 4.16 -9.9375 4.82 -9.9375 5.5 C-6.82417752 4.83131686 -6.82417752 4.83131686 -5.75 2.4375 C-3.9375 0.5 -3.9375 0.5 0 0 Z " fill="#0C8DFB" transform="translate(629.9375,687.5)"/>
<path d="M0 0 C0.99 0.33 1.98 0.66 3 1 C3 1.66 3 2.32 3 3 C3.97271851 2.94670532 3.97271851 2.94670532 4.96508789 2.89233398 C17.39771556 2.23300296 29.59728296 1.70805031 42 3 C42 3.33 42 3.66 42 4 C27.15 4 12.3 4 -3 4 C-1 1 -1 1 0 0 Z " fill="#08DFF9" transform="translate(422,691)"/>
<path d="M0 0 C1.5625 1.8125 1.5625 1.8125 3 4 C2 7 2 7 0 10 C-1.02457088 13.46546032 -1.91150182 16.95559325 -2.8046875 20.45703125 C-4.09426955 24.27941986 -5.63625625 26.77086889 -8 30 C-9 28 -9 28 -8.109375 25.19921875 C-7.66078125 24.04035156 -7.2121875 22.88148438 -6.75 21.6875 C-4.48819119 15.69339294 -2.88183157 9.73278121 -1.578125 3.44921875 C-1 1 -1 1 0 0 Z " fill="#2584D3" transform="translate(637,635)"/>
<path d="M0 0 C0.33 0 0.66 0 1 0 C1.36402369 1.43503555 1.71586591 2.87316506 2.0625 4.3125 C2.25972656 5.11300781 2.45695313 5.91351562 2.66015625 6.73828125 C3 9 3 9 2 12 C1.77439324 14.39254576 1.59151405 16.78928123 1.4375 19.1875 C1.35371094 20.45980469 1.26992188 21.73210938 1.18359375 23.04296875 C1.12300781 24.01878906 1.06242188 24.99460937 1 26 C0.67 26 0.34 26 0 26 C-0.74518997 22.66847544 -1.12803405 19.58369101 -1.1328125 16.171875 C-1.13474609 14.84929688 -1.13474609 14.84929688 -1.13671875 13.5 C-1.13285156 12.5925 -1.12898437 11.685 -1.125 10.75 C-1.12886719 9.82703125 -1.13273438 8.9040625 -1.13671875 7.953125 C-1.13542969 7.0765625 -1.13414062 6.2 -1.1328125 5.296875 C-1.13168457 4.49604492 -1.13055664 3.69521484 -1.12939453 2.87011719 C-1 1 -1 1 0 0 Z " fill="#246FFE" transform="translate(639,587)"/>
<path d="M0 0 C2.20192224 3.30288336 2.23959968 4.27462727 2.1953125 8.10546875 C2.18886719 9.08837891 2.18242188 10.07128906 2.17578125 11.08398438 C2.15902344 12.10814453 2.14226563 13.13230469 2.125 14.1875 C2.11597656 15.22326172 2.10695313 16.25902344 2.09765625 17.32617188 C2.0740786 19.88434685 2.0411703 22.44205748 2 25 C1.01 25.33 0.02 25.66 -1 26 C-1.02886751 21.85418113 -1.04675327 17.70838784 -1.0625 13.5625 C-1.07087891 12.37849609 -1.07925781 11.19449219 -1.08789062 9.97460938 C-1.09111328 8.84990234 -1.09433594 7.72519531 -1.09765625 6.56640625 C-1.10289307 5.52427979 -1.10812988 4.48215332 -1.11352539 3.40844727 C-1 1 -1 1 0 0 Z " fill="#3C5AFE" transform="translate(639,525)"/>
<path d="M0 0 C1.58357459 0.31127516 3.16684993 0.62407289 4.75 0.9375 C5.63171875 1.11152344 6.5134375 1.28554688 7.421875 1.46484375 C10 2 10 2 11.875 2.5625 C15.00886655 3.20770782 18.05613226 3.09207285 21.25 3.0625 C22.51328125 3.05347656 23.7765625 3.04445313 25.078125 3.03515625 C26.52445312 3.01775391 26.52445312 3.01775391 28 3 C24.65178973 6.34821027 20.23363883 5.41009528 15.6875 5.4375 C14.73681641 5.47037109 13.78613281 5.50324219 12.80664062 5.53710938 C5.91945165 5.59005073 5.91945165 5.59005073 3.21728516 3.85595703 C1.83203125 2.47265625 1.83203125 2.47265625 0 0 Z " fill="#19F6EC" transform="translate(299,690)"/>
<path d="M0 0 C12.87 0 25.74 0 39 0 C39 0.33 39 0.66 39 1 C26.22005216 2.92904873 12.91985626 2 0 2 C0 1.34 0 0.68 0 0 Z " fill="#1A7FFE" transform="translate(399,479)"/>
<path d="M0 0 C0.99 0 1.98 0 3 0 C3 13.6 3 13.6 2 19 C1.34 19.66 0.68 20.32 0 21 C0 14.07 0 7.14 0 0 Z M1 8 C2 10 2 10 2 10 Z " fill="#4A53FE" transform="translate(638,504)"/>
<path d="M0 0 C-0.66 2.97 -1.32 5.94 -2 9 C-4.31 9 -6.62 9 -9 9 C-8.40844669 7.68176698 -7.80128537 6.37052949 -7.1875 5.0625 C-6.85105469 4.33160156 -6.51460937 3.60070312 -6.16796875 2.84765625 C-4.56222564 0.30746732 -2.93404144 0 0 0 Z " fill="#0D8FFC" transform="translate(618,682)"/>
<path d="M0 0 C0 2.33333333 0 4.66666667 0 7 C-0.53625 7.2475 -1.0725 7.495 -1.625 7.75 C-4.56363927 9.29665225 -7.24770663 11.1451936 -10 13 C-10.99 13.495 -10.99 13.495 -12 14 C-10.41332422 10.09714233 -7.86649519 7.66479018 -4.875 4.75 C-3.96492187 3.85796875 -3.05484375 2.9659375 -2.1171875 2.046875 C-1.41851563 1.37140625 -0.71984375 0.6959375 0 0 Z " fill="#9941F7" transform="translate(601,354)"/>
<path d="M0 0 C2.94601605 0.31848822 4.55858754 0.55858754 6.6875 2.6875 C8.38340033 5.67551487 8.1293169 7.37612546 7.6875 10.75 C7.50767578 12.22726562 7.50767578 12.22726562 7.32421875 13.734375 C7.21722656 14.48203125 7.11023438 15.2296875 7 16 C4.61763718 12.42645577 4.68980209 10.23133972 4.5390625 6.05859375 C4.19897739 3.80034478 4.19897739 3.80034478 1.9609375 2.72265625 C1.31382812 2.48417969 0.66671875 2.24570312 0 2 C0 1.34 0 0.68 0 0 Z " fill="#2D5FFA" transform="translate(499,479)"/>
<path d="M0 0 C0 3.12975659 -0.54346553 4.77572244 -1.75 7.625 C-2.07484375 8.42164063 -2.3996875 9.21828125 -2.734375 10.0390625 C-4 12 -4 12 -6.140625 12.7734375 C-6.75421875 12.84820312 -7.3678125 12.92296875 -8 13 C-7.88759583 8.3914291 -6.61543768 6.27090202 -3.4375 3.125 C-2.30330262 2.07067568 -1.16107206 1.02465367 0 0 Z " fill="#9C2DEB" transform="translate(660,291)"/>
<path d="M0 0 C2.125 0 2.125 0 5 1 C6.45703125 2.77734375 6.45703125 2.77734375 7.9375 4.9375 C10.51191891 8.67542252 12.40415292 10.12460056 17 11 C17 11.33 17 11.66 17 12 C11.08637514 11.6491298 8.58246976 10.30754751 4.5625 6 C3.69753906 5.0925 2.83257813 4.185 1.94140625 3.25 C0 1 0 1 0 0 Z " fill="#8F50F6" transform="translate(577,391)"/>
<path d="M0 0 C5.875 4.75 5.875 4.75 7 7 C7.46153846 12.42307692 7.46153846 12.42307692 5.5 14.875 C4.7575 15.431875 4.7575 15.431875 4 16 C3.875 10.25 3.875 10.25 5 8 C4.34 8 3.68 8 3 8 C2.566875 6.824375 2.566875 6.824375 2.125 5.625 C1.15087746 2.90328368 1.15087746 2.90328368 -1 1 C-0.67 0.67 -0.34 0.34 0 0 Z " fill="#B233F4" transform="translate(749,375)"/>
<path d="M0 0 C0.66 0.33 1.32 0.66 2 1 C1.34 1.94875 0.68 2.8975 0 3.875 C-2.17968457 6.66238955 -2.17968457 6.66238955 -2 9 C-2.928125 9.28875 -3.85625 9.5775 -4.8125 9.875 C-8.09791667 10.8875 -8.09791667 10.8875 -11 13 C-9.46356148 9.31930113 -7.21849055 7.01224796 -4.375 4.25 C-3.55773437 3.45078125 -2.74046875 2.6515625 -1.8984375 1.828125 C-0.95871094 0.92320312 -0.95871094 0.92320312 0 0 Z " fill="#A939F8" transform="translate(634,319)"/>
<path d="M0 0 C1.98 0.99 3.96 1.98 6 3 C6 2.34 6 1.68 6 1 C6.99 1.33 7.98 1.66 9 2 C7 4 7 4 4.84521484 4.22705078 C3.97590332 4.21657715 3.1065918 4.20610352 2.2109375 4.1953125 C1.26992188 4.18886719 0.32890625 4.18242188 -0.640625 4.17578125 C-1.62546875 4.15902344 -2.6103125 4.14226563 -3.625 4.125 C-4.61757813 4.11597656 -5.61015625 4.10695313 -6.6328125 4.09765625 C-9.08878134 4.07404116 -11.54427168 4.04110799 -14 4 C-14 3.67 -14 3.34 -14 3 C-9.38 3 -4.76 3 0 3 C0 2.01 0 1.02 0 0 Z " fill="#039FFB" transform="translate(531,690)"/>
<path d="M0 0 C0.33 1.32 0.66 2.64 1 4 C-1.97 6.475 -1.97 6.475 -5 9 C-6.32 8.34 -7.64 7.68 -9 7 C-6.03716687 4.61327331 -3.05729491 2.2646629 0 0 Z " fill="#962EF2" transform="translate(627,328)"/>
<path d="M0 0 C4.91935902 4.11619836 9.52647956 8.40410362 14 13 C13.34 13.66 12.68 14.32 12 15 C11.18595703 14.04287109 11.18595703 14.04287109 10.35546875 13.06640625 C9.28232422 11.82697266 9.28232422 11.82697266 8.1875 10.5625 C7.47980469 9.73878906 6.77210938 8.91507812 6.04296875 8.06640625 C4.08890314 5.77835241 4.08890314 5.77835241 1 5 C0.67 3.35 0.34 1.7 0 0 Z " fill="#A834E8" transform="translate(691,313)"/>
<path d="M0 0 C4.94884301 -0.40564287 8.48894322 -0.25552839 13 2 C13 2.33 13 2.66 13 3 C8.05 3 3.1 3 -2 3 C-1.34 2.01 -0.68 1.02 0 0 Z " fill="#05A7F9" transform="translate(503,691)"/>
<path d="M0 0 C0.66 0 1.32 0 2 0 C2 5.61 2 11.22 2 17 C1.67 17 1.34 17 1 17 C0.92652344 15.82630859 0.92652344 15.82630859 0.8515625 14.62890625 C0.77679687 13.61699219 0.70203125 12.60507812 0.625 11.5625 C0.55539062 10.55316406 0.48578125 9.54382813 0.4140625 8.50390625 C0.27742187 7.67761719 0.14078125 6.85132813 0 6 C-0.66 5.67 -1.32 5.34 -2 5 C-1.34 3.35 -0.68 1.7 0 0 Z " fill="#8C29FB" transform="translate(691,438)"/>
<path d="M0 0 C0.99 0.33 1.98 0.66 3 1 C3 2.98 3 4.96 3 7 C1.02 7.99 1.02 7.99 -1 9 C-1.09765625 2.84765625 -1.09765625 2.84765625 -1 1 C-0.67 0.67 -0.34 0.34 0 0 Z " fill="#4553FA" transform="translate(690,551)"/>
<path d="M0 0 C0.66 0 1.32 0 2 0 C2 3.3 2 6.6 2 10 C1.34 10 0.68 10 0 10 C-0.38922918 8.71254964 -0.76098036 7.41980403 -1.125 6.125 C-1.43824219 5.04605469 -1.43824219 5.04605469 -1.7578125 3.9453125 C-1.83773437 3.30335938 -1.91765625 2.66140625 -2 2 C-1.34 1.34 -0.68 0.68 0 0 Z " fill="#7636FB" transform="translate(691,470)"/>
<path d="M0 0 C0.66 0 1.32 0 2 0 C0.4169423 4.2742558 -2.50568404 6.26531794 -6 9 C-6.33 7.35 -6.66 5.7 -7 4 C-4.35261084 2.5393715 -3.10551666 2 0 2 C0 1.34 0 0.68 0 0 Z " fill="#110927" transform="translate(632,318)"/>
<path d="M0 0 C1.1725131 0.95117134 2.33787015 1.91117009 3.5 2.875 C4.47453125 3.67550781 4.47453125 3.67550781 5.46875 4.4921875 C5.9740625 4.98976563 6.479375 5.48734375 7 6 C7 6.66 7 7.32 7 8 C5.68 8.33 4.36 8.66 3 9 C0 2.25 0 2.25 0 0 Z " fill="#A31DFC" transform="translate(679,302)"/>
<path d="M0 0 C0.66 0 1.32 0 2 0 C2 0.99 2 1.98 2 3 C2.66 2.67 3.32 2.34 4 2 C4.99 4.31 5.98 6.62 7 9 C6.01 9 5.02 9 4 9 C0.8217901 5.7309841 0 4.67834007 0 0 Z " fill="#0D0A23" transform="translate(686,303)"/>
<path d="M0 0 C6.4 0.36923077 6.4 0.36923077 9.4375 3.5625 C9.953125 4.366875 10.46875 5.17125 11 6 C8.36 6 5.72 6 3 6 C2.67 5.34 2.34 4.68 2 4 C2.66 4 3.32 4 4 4 C4 3.01 4 2.02 4 1 C2.68 0.67 1.36 0.34 0 0 Z " fill="#AE30FB" transform="translate(664,290)"/>
<path d="M0 0 C2.33302989 0.03762951 4.66713319 0.04665734 7 0 C7 0.66 7 1.32 7 2 C1.39 2 -4.22 2 -10 2 C-10 1.34 -10 0.68 -10 0 C-6.38032389 -1.25296481 -3.72162469 -0.6567573 0 0 Z " fill="#676AF7" transform="translate(488,395)"/>
<path d="M0 0 C0.92538169 3.70152678 1.08174162 4.63458162 0 8 C-2.97 7.505 -2.97 7.505 -6 7 C-4.02 4.69 -2.04 2.38 0 0 Z " fill="#9731E8" transform="translate(640,312)"/>
<path d="M0 0 C0.99 0.33 1.98 0.66 3 1 C4.89212737 1.22179785 6.78884472 1.40614015 8.6875 1.5625 C9.68136719 1.64628906 10.67523438 1.73007812 11.69921875 1.81640625 C12.83810547 1.90728516 12.83810547 1.90728516 14 2 C14 2.33 14 2.66 14 3 C7.73 3 1.46 3 -5 3 C-2 1 -2 1 0 0 Z " fill="#31FAF6" transform="translate(349,692)"/>
<path d="M0 0 C1.32 0 2.64 0 4 0 C4.625 3.375 4.625 3.375 5 7 C4.34 7.66 3.68 8.32 3 9 C1.68 8.01 0.36 7.02 -1 6 C-0.01 6 0.98 6 2 6 C2 5.34 2 4.68 2 4 C1.34 3.67 0.68 3.34 0 3 C0 2.01 0 1.02 0 0 Z " fill="#1C7AF2" transform="translate(680,650)"/>
<path d="M0 0 C3 4 3 4 3 8 C2.3747292 10.34476551 1.7136591 12.68060793 1 15 C0.67 15 0.34 15 0 15 C0 10.05 0 5.1 0 0 Z " fill="#487CF6" transform="translate(637,576)"/>
<path d="M0 0 C0.66 0.33 1.32 0.66 2 1 C2 4 2 4 0 7 C-0.66 6.67 -1.32 6.34 -2 6 C-2 5.34 -2 4.68 -2 4 C-2.99 5.32 -3.98 6.64 -5 8 C-4.64950425 4.75791433 -4.43778819 3.38472296 -1.9375 1.1875 C-1.298125 0.795625 -0.65875 0.40375 0 0 Z " fill="#1BB8F3" transform="translate(303,333)"/>
<path d="M0 0 C0.66 0.99 1.32 1.98 2 3 C1.34 4.32 0.68 5.64 0 7 C-1.65 6.67 -3.3 6.34 -5 6 C-5 5.34 -5 4.68 -5 4 C-4.34 4 -3.68 4 -3 4 C-3 3.34 -3 2.68 -3 2 C-2.01 1.34 -1.02 0.68 0 0 Z " fill="#2B74F2" transform="translate(505,534)"/>
<path d="M0 0 C0.99 0.33 1.98 0.66 3 1 C1.64053662 3.58298041 0.53230864 5.59617965 -1.8125 7.375 C-4.77236371 8.22067535 -7.03461211 7.67395179 -10 7 C-10 6.67 -10 6.34 -10 6 C-7.03 5.34 -4.06 4.68 -1 4 C-0.67 2.68 -0.34 1.36 0 0 Z " fill="#6F4CF0" transform="translate(539,389)"/>
<path d="M0 0 C2 1 2 1 3 3 C2.67 3.66 2.34 4.32 2 5 C2.66 5.33 3.32 5.66 4 6 C0.88742431 6 -1.10765685 5.82638376 -4 5 C-4 4.34 -4 3.68 -4 3 C-3.01 3 -2.02 3 -1 3 C-0.67 2.01 -0.34 1.02 0 0 Z " fill="#A61FFC" transform="translate(716,384)"/>
<path d="M0 0 C1.12758089 3.38274266 0.81750262 4.76778223 0.0625 8.1875 C-0.13214844 9.08855469 -0.32679688 9.98960937 -0.52734375 10.91796875 C-0.68332031 11.60503906 -0.83929688 12.29210937 -1 13 C-1.33 13 -1.66 13 -2 13 C-2.94396421 10.01503209 -3.75232831 7.12820109 -4 4 C-2.125 1.4375 -2.125 1.4375 0 0 Z " fill="#05AEF8" transform="translate(301,336)"/>
<path d="M0 0 C5.875 4.625 5.875 4.625 7 8 C5.35 8 3.7 8 2 8 C1.34 5.36 0.68 2.72 0 0 Z " fill="#A61BFA" transform="translate(711,336)"/>
<path d="M0 0 C0.33 1.32 0.66 2.64 1 4 C1.66 4 2.32 4 3 4 C2.67 5.98 2.34 7.96 2 10 C0.68 9.67 -0.64 9.34 -2 9 C-1.34 6.03 -0.68 3.06 0 0 Z " fill="#0B142C" transform="translate(691,637)"/>
<path d="M0 0 C1.32 0 2.64 0 4 0 C5.20272819 2.40545638 5.10071472 3.94996953 5.0625 6.625 C5.05347656 7.44226563 5.04445313 8.25953125 5.03515625 9.1015625 C5.02355469 9.72804688 5.01195312 10.35453125 5 11 C3.23537317 7.91190305 3 6.76687864 3 3 C2.34 3 1.68 3 1 3 C0.67 2.01 0.34 1.02 0 0 Z " fill="#0D8AF9" transform="translate(538,634)"/>
<path d="M0 0 C4.62 0 9.24 0 14 0 C13 2 13 2 11.3125 2.75 C8.17326781 3.08937645 5.91097894 2.12469641 3 1 C2.67 1.66 2.34 2.32 2 3 C1.34 2.01 0.68 1.02 0 0 Z " fill="#04B8F9" transform="translate(407,630)"/>
<path d="M0 0 C1.32 0.66 2.64 1.32 4 2 C3.34 2 2.68 2 2 2 C2 2.66 2 3.32 2 4 C0.68 4.33 -0.64 4.66 -2 5 C-2 6.65 -2 8.3 -2 10 C-2.33 10 -2.66 10 -3 10 C-3.36923077 3.47692308 -3.36923077 3.47692308 -1.5 1.0625 C-1.005 0.711875 -0.51 0.36125 0 0 Z " fill="#8F47F6" transform="translate(578,378)"/>
<path d="M0 0 C3 3 3 3 3.375 5.5625 C3.25125 6.366875 3.1275 7.17125 3 8 C2.01 8.66 1.02 9.32 0 10 C0 6.7 0 3.4 0 0 Z " fill="#8E2DFD" transform="translate(638,385)"/>
<path d="M0 0 C1.12894876 0.93274109 2.25300876 1.87140122 3.375 2.8125 C4.00148438 3.33457031 4.62796875 3.85664063 5.2734375 4.39453125 C7 6 7 6 9 9 C8.01 9.33 7.02 9.66 6 10 C5.67 8.68 5.34 7.36 5 6 C4.34 6 3.68 6 3 6 C0 2.53846154 0 2.53846154 0 0 Z " fill="#B232F1" transform="translate(722,346)"/>
<path d="M0 0 C0 3.66842255 -0.79029126 5.10451959 -3 8 C-5.6875 8.8125 -5.6875 8.8125 -8 9 C-7.04270084 7.87411986 -6.08412105 6.7493285 -5.125 5.625 C-4.59132813 4.99851562 -4.05765625 4.37203125 -3.5078125 3.7265625 C-2.38567993 2.44163349 -1.20628025 1.20628025 0 0 Z " fill="#2395E4" transform="translate(621,674)"/>
<path d="M0 0 C0.99 0.66 1.98 1.32 3 2 C1.25 4.0625 1.25 4.0625 -1 6 C-3.25 5.75 -3.25 5.75 -5 5 C-3.35 3.35 -1.7 1.7 0 0 Z " fill="#071328" transform="translate(674,671)"/>
<path d="M0 0 C0.66 0.66 1.32 1.32 2 2 C0.25 4.0625 0.25 4.0625 -2 6 C-4.25 5.75 -4.25 5.75 -6 5 C-4.02 3.35 -2.04 1.7 0 0 Z " fill="#8F39FC" transform="translate(587,370)"/>
<path d="M0 0 C1.5625 1.8125 1.5625 1.8125 3 4 C2.0022242 6.99332739 1.2477975 7.94766315 -1 10 C-1.02689216 8.52093108 -1.04634621 7.04172517 -1.0625 5.5625 C-1.07410156 4.73878906 -1.08570313 3.91507813 -1.09765625 3.06640625 C-1 1 -1 1 0 0 Z " fill="#2791EF" transform="translate(637,635)"/>
<path d="M0 0 C3.7952131 1.49097658 5.61042731 3.75700849 8 7 C6.68 6.67 5.36 6.34 4 6 C4 5.34 4 4.68 4 4 C2.68 3.67 1.36 3.34 0 3 C0 2.01 0 1.02 0 0 Z " fill="#0E0628" transform="translate(576,392)"/>
<path d="M0 0 C0.9075 0.103125 1.815 0.20625 2.75 0.3125 C-0.53804981 3.22477269 -2.84885603 4.80951212 -7.25 5.3125 C-4.05 0.38942308 -4.05 0.38942308 0 0 Z " fill="#963DEC" transform="translate(628.25,381.6875)"/>
<path d="M0 0 C0.66 0.33 1.32 0.66 2 1 C0.50902342 4.7952131 -1.75700849 6.61042731 -5 9 C-4.690625 8.401875 -4.38125 7.80375 -4.0625 7.1875 C-2.89790296 4.91043228 -2.89790296 4.91043228 -2 2 C-1.34 2 -0.68 2 0 2 C0 1.34 0 0.68 0 0 Z " fill="#04070F" transform="translate(590,361)"/>
<path d="M0 0 C0 0.66 0 1.32 0 2 C1.65 2 3.3 2 5 2 C5 2.33 5 2.66 5 3 C1.04 3 -2.92 3 -7 3 C-2.5 0 -2.5 0 0 0 Z " fill="#2BB3F2" transform="translate(600,692)"/>
<path d="M0 0 C2.97 0.495 2.97 0.495 6 1 C4.69593116 3.01920337 3.36176581 5.01924973 2 7 C1.67 7 1.34 7 1 7 C0.67 4.69 0.34 2.38 0 0 Z " fill="#100726" transform="translate(695,381)"/>
<path d="M0 0 C0.99 0 1.98 0 3 0 C3 0.66 3 1.32 3 2 C3.639375 2.12375 4.27875 2.2475 4.9375 2.375 C5.618125 2.58125 6.29875 2.7875 7 3 C7.33 3.66 7.66 4.32 8 5 C7.01 5.33 6.02 5.66 5 6 C3.35 4.02 1.7 2.04 0 0 Z " fill="#140B31" transform="translate(671,291)"/>
<path d="M0 0 C1.32 0.33 2.64 0.66 4 1 C3.625 3.4375 3.625 3.4375 3 6 C2.01 6.495 2.01 6.495 1 7 C0.67 4.69 0.34 2.38 0 0 Z " fill="#1480FA" transform="translate(672,663)"/>
<path d="M0 0 C0.62109375 1.796875 0.62109375 1.796875 1 4 C-0.9375 7.25 -0.9375 7.25 -3 10 C-3.33 9.34 -3.66 8.68 -4 8 C-3.22265625 6.0546875 -3.22265625 6.0546875 -2.0625 3.875 C-1.49208984 2.78832031 -1.49208984 2.78832031 -0.91015625 1.6796875 C-0.60980469 1.12539063 -0.30945313 0.57109375 0 0 Z " fill="#2A99EA" transform="translate(632,655)"/>
<path d="M0 0 C4.75 0.75 4.75 0.75 7 3 C6.67 3.99 6.34 4.98 6 6 C6 5.34 6 4.68 6 4 C4.02 3.34 2.04 2.68 0 2 C0 1.34 0 0.68 0 0 Z " fill="#4374F2" transform="translate(499,479)"/>
<path d="M0 0 C1.258125 -0.04125 2.51625 -0.0825 3.8125 -0.125 C4.52019531 -0.14820313 5.22789062 -0.17140625 5.95703125 -0.1953125 C8 0 8 0 11 2 C8.69 2.33 6.38 2.66 4 3 C4 2.34 4 1.68 4 1 C2.68 0.67 1.36 0.34 0 0 Z " fill="#020B0F" transform="translate(733,403)"/>
<path d="M0 0 C0.99 0.33 1.98 0.66 3 1 C1.35 2.98 -0.3 4.96 -2 7 C-2.33 6.01 -2.66 5.02 -3 4 C-1.5625 1.8125 -1.5625 1.8125 0 0 Z " fill="#120C2A" transform="translate(599,352)"/>
</svg>
